<?xml version="1.0" encoding="UTF-8" standalone="no"?>
<!-- Created with Inkscape (http://www.inkscape.org/) -->

<svg
   width="297mm"
   height="210mm"
   viewBox="0 0 297 210"
   version="1.1"
   id="svg5"
   inkscape:version="1.2.2 (1:1.2.2+202212051550+b0a8486541)"
   sodipodi:docname="logic-inference-as-mappings.svg"
   xml:space="preserve"
   xmlns:inkscape="http://www.inkscape.org/namespaces/inkscape"
   xmlns:sodipodi="http://sodipodi.sourceforge.net/DTD/sodipodi-0.dtd"
   xmlns="http://www.w3.org/2000/svg"
   xmlns:svg="http://www.w3.org/2000/svg"><sodipodi:namedview
     id="namedview7"
     pagecolor="#ffffff"
     bordercolor="#666666"
     borderopacity="1.0"
     inkscape:pageshadow="2"
     inkscape:pageopacity="0.0"
     inkscape:pagecheckerboard="0"
     inkscape:document-units="mm"
     showgrid="false"
     inkscape:zoom="1"
     inkscape:cx="291"
     inkscape:cy="393.5"
     inkscape:window-width="1920"
     inkscape:window-height="1055"
     inkscape:window-x="0"
     inkscape:window-y="0"
     inkscape:window-maximized="1"
     inkscape:current-layer="layer1"
     inkscape:snap-global="false"
     inkscape:showpageshadow="0"
     inkscape:deskcolor="#d1d1d1" /><defs
     id="defs2"><marker
       style="overflow:visible"
       id="TriangleStart"
       refX="0"
       refY="0"
       orient="auto-start-reverse"
       inkscape:stockid="TriangleStart"
       markerWidth="5.3244081"
       markerHeight="6.155385"
       viewBox="0 0 5.3244081 6.1553851"
       inkscape:isstock="true"
       inkscape:collect="always"
       preserveAspectRatio="xMidYMid"><path
         transform="scale(0.5)"
         style="fill:context-stroke;fill-rule:evenodd;stroke:context-stroke;stroke-width:1pt"
         d="M 5.77,0 -2.88,5 V -5 Z"
         id="path135" /></marker><marker
       style="overflow:visible"
       id="Arrow2Lend"
       refX="0"
       refY="0"
       orient="auto"
       inkscape:stockid="Arrow2Lend"
       inkscape:isstock="true"><path
         transform="matrix(-1.1,0,0,-1.1,-1.1,0)"
         d="M 8.7185878,4.0337352 -2.2072895,0.01601326 8.7185884,-4.0017078 c -1.7454984,2.3720609 -1.7354408,5.6174519 -6e-7,8.035443 z"
         style="fill:context-stroke;fill-rule:evenodd;stroke:context-stroke;stroke-width:0.625;stroke-linejoin:round"
         id="path4747" /></marker><marker
       style="overflow:visible"
       id="Arrow2Mend"
       refX="0"
       refY="0"
       orient="auto"
       inkscape:stockid="Arrow2Mend"
       inkscape:isstock="true"><path
         transform="scale(-0.6)"
         d="M 8.7185878,4.0337352 -2.2072895,0.01601326 8.7185884,-4.0017078 c -1.7454984,2.3720609 -1.7354408,5.6174519 -6e-7,8.035443 z"
         style="fill:context-stroke;fill-rule:evenodd;stroke:context-stroke;stroke-width:0.625;stroke-linejoin:round"
         id="path4753" /></marker><marker
       style="overflow:visible"
       id="Arrow2Send"
       refX="0"
       refY="0"
       orient="auto"
       inkscape:stockid="Arrow2Send"><path
         transform="matrix(-0.3,0,0,-0.3,0.69,0)"
         d="M 8.7185878,4.0337352 -2.2072895,0.01601326 8.7185884,-4.0017078 c -1.7454984,2.3720609 -1.7354408,5.6174519 -6e-7,8.035443 z"
         style="fill-rule:evenodd;stroke-width:0.625;stroke-linejoin:round"
         id="path3909"
         inkscape:connector-curvature="0" /></marker><marker
       style="overflow:visible"
       id="Arrow1Lend"
       refX="0"
       refY="0"
       orient="auto"
       inkscape:stockid="Arrow1Lend"><path
         transform="matrix(-0.8,0,0,-0.8,-10,0)"
         style="fill-rule:evenodd;stroke:#000000;stroke-width:1pt"
         d="M 0,0 5,-5 -12.5,0 5,5 Z"
         id="path3879"
         inkscape:connector-curvature="0" /></marker><marker
       style="overflow:visible"
       id="Arrow2Lend-3"
       refX="0"
       refY="0"
       orient="auto"
       inkscape:stockid="Arrow2Lend"><path
         transform="matrix(-1.1,0,0,-1.1,-1.1,0)"
         d="M 8.7185878,4.0337352 -2.2072895,0.01601326 8.7185884,-4.0017078 c -1.7454984,2.3720609 -1.7354408,5.6174519 -6e-7,8.035443 z"
         style="fill-rule:evenodd;stroke-width:0.625;stroke-linejoin:round"
         id="path3897"
         inkscape:connector-curvature="0" /></marker><marker
       style="overflow:visible"
       id="Arrow2Mend-5"
       refX="0"
       refY="0"
       orient="auto"
       inkscape:stockid="Arrow2Mend"><path
         transform="scale(-0.6)"
         d="M 8.7185878,4.0337352 -2.2072895,0.01601326 8.7185884,-4.0017078 c -1.7454984,2.3720609 -1.7354408,5.6174519 -6e-7,8.035443 z"
         style="fill-rule:evenodd;stroke-width:0.625;stroke-linejoin:round"
         id="path3903"
         inkscape:connector-curvature="0" /></marker><marker
       style="overflow:visible"
       id="Arrow1Mend"
       refX="0"
       refY="0"
       orient="auto"
       inkscape:stockid="Arrow1Mend"><path
         transform="matrix(-0.4,0,0,-0.4,-4,0)"
         style="fill-rule:evenodd;stroke:#000000;stroke-width:1pt"
         d="M 0,0 5,-5 -12.5,0 5,5 Z"
         id="path3885"
         inkscape:connector-curvature="0" /></marker><marker
       style="overflow:visible"
       id="Arrow2Lend-2"
       refX="0"
       refY="0"
       orient="auto"
       inkscape:stockid="Arrow2Lend"><path
         transform="matrix(-1.1,0,0,-1.1,-1.1,0)"
         d="M 8.7185878,4.0337352 -2.2072895,0.01601326 8.7185884,-4.0017078 c -1.7454984,2.3720609 -1.7354408,5.6174519 -6e-7,8.035443 z"
         style="fill-rule:evenodd;stroke-width:0.625;stroke-linejoin:round"
         id="path3897-9"
         inkscape:connector-curvature="0" /></marker><marker
       style="overflow:visible"
       id="Arrow2Lend-1"
       refX="0"
       refY="0"
       orient="auto"
       inkscape:stockid="Arrow2Lend"><path
         transform="matrix(-1.1,0,0,-1.1,-1.1,0)"
         d="M 8.7185878,4.0337352 -2.2072895,0.01601326 8.7185884,-4.0017078 c -1.7454984,2.3720609 -1.7354408,5.6174519 -6e-7,8.035443 z"
         style="fill-rule:evenodd;stroke-width:0.625;stroke-linejoin:round"
         id="path3897-94"
         inkscape:connector-curvature="0" /></marker><marker
       style="overflow:visible"
       id="Arrow2Lend-8"
       refX="0"
       refY="0"
       orient="auto"
       inkscape:stockid="Arrow2Lend"><path
         transform="matrix(-1.1,0,0,-1.1,-1.1,0)"
         d="M 8.7185878,4.0337352 -2.2072895,0.01601326 8.7185884,-4.0017078 c -1.7454984,2.3720609 -1.7354408,5.6174519 -6e-7,8.035443 z"
         style="fill-rule:evenodd;stroke-width:0.625;stroke-linejoin:round"
         id="path3897-4"
         inkscape:connector-curvature="0" /></marker><marker
       style="overflow:visible"
       id="Arrow2Lend-0"
       refX="0"
       refY="0"
       orient="auto"
       inkscape:stockid="Arrow2Lend"><path
         transform="matrix(-1.1,0,0,-1.1,-1.1,0)"
         d="M 8.7185878,4.0337352 -2.2072895,0.01601326 8.7185884,-4.0017078 c -1.7454984,2.3720609 -1.7354408,5.6174519 -6e-7,8.035443 z"
         style="fill-rule:evenodd;stroke-width:0.625;stroke-linejoin:round"
         id="path3897-3"
         inkscape:connector-curvature="0" /></marker><marker
       style="overflow:visible"
       id="Arrow2Lend-10"
       refX="0"
       refY="0"
       orient="auto"
       inkscape:stockid="Arrow2Lend"><path
         transform="matrix(-1.1,0,0,-1.1,-1.1,0)"
         d="M 8.7185878,4.0337352 -2.2072895,0.01601326 8.7185884,-4.0017078 c -1.7454984,2.3720609 -1.7354408,5.6174519 -6e-7,8.035443 z"
         style="fill-rule:evenodd;stroke-width:0.625;stroke-linejoin:round"
         id="path3897-6"
         inkscape:connector-curvature="0" /></marker><marker
       style="overflow:visible"
       id="Arrow2Lend-06"
       refX="0"
       refY="0"
       orient="auto"
       inkscape:stockid="Arrow2Lend"><path
         transform="matrix(-1.1,0,0,-1.1,-1.1,0)"
         d="M 8.7185878,4.0337352 -2.2072895,0.01601326 8.7185884,-4.0017078 c -1.7454984,2.3720609 -1.7354408,5.6174519 -6e-7,8.035443 z"
         style="fill-rule:evenodd;stroke-width:0.625;stroke-linejoin:round"
         id="path3897-1"
         inkscape:connector-curvature="0" /></marker><marker
       style="overflow:visible"
       id="Arrow2Lend-4"
       refX="0"
       refY="0"
       orient="auto"
       inkscape:stockid="Arrow2Lend"><path
         transform="matrix(-1.1,0,0,-1.1,-1.1,0)"
         d="M 8.7185878,4.0337352 -2.2072895,0.01601326 8.7185884,-4.0017078 c -1.7454984,2.3720609 -1.7354408,5.6174519 -6e-7,8.035443 z"
         style="fill-rule:evenodd;stroke-width:0.625;stroke-linejoin:round"
         id="path3897-7"
         inkscape:connector-curvature="0" /></marker><marker
       style="overflow:visible"
       id="Arrow2MendS"
       refX="0"
       refY="0"
       orient="auto"
       inkscape:stockid="Arrow2MendS"><path
         transform="scale(-0.6)"
         d="M 8.7185878,4.0337352 -2.2072895,0.01601326 8.7185884,-4.0017078 c -1.7454984,2.3720609 -1.7354408,5.6174519 -6e-7,8.035443 z"
         style="fill:#0000ff;fill-rule:evenodd;stroke:#0000ff;stroke-width:0.625;stroke-linejoin:round"
         id="path7051"
         inkscape:connector-curvature="0" /></marker><marker
       style="overflow:visible"
       id="Arrow2MendSG"
       refX="0"
       refY="0"
       orient="auto"
       inkscape:stockid="Arrow2MendSG"><path
         transform="scale(-0.6)"
         d="M 8.7185878,4.0337352 -2.2072895,0.01601326 8.7185884,-4.0017078 c -1.7454984,2.3720609 -1.7354408,5.6174519 -6e-7,8.035443 z"
         style="fill:#ff0000;fill-rule:evenodd;stroke:#ff0000;stroke-width:0.625;stroke-linejoin:round"
         id="path7329"
         inkscape:connector-curvature="0" /></marker><marker
       style="overflow:visible"
       id="Arrow2MendSGT"
       refX="0"
       refY="0"
       orient="auto"
       inkscape:stockid="Arrow2MendSGT"><path
         transform="scale(-0.6)"
         d="M 8.7185878,4.0337352 -2.2072895,0.01601326 8.7185884,-4.0017078 c -1.7454984,2.3720609 -1.7354408,5.6174519 -6e-7,8.035443 z"
         style="fill:#000000;fill-rule:evenodd;stroke:#000000;stroke-width:0.625;stroke-linejoin:round"
         id="path4633"
         inkscape:connector-curvature="0" /></marker><marker
       style="overflow:visible"
       id="Arrow2Lend-36"
       refX="0"
       refY="0"
       orient="auto"
       inkscape:stockid="Arrow2Lend"
       inkscape:isstock="true"><path
         transform="matrix(-1.1,0,0,-1.1,-1.1,0)"
         d="M 8.7185878,4.0337352 -2.2072895,0.01601326 8.7185884,-4.0017078 c -1.7454984,2.3720609 -1.7354408,5.6174519 -6e-7,8.035443 z"
         style="fill:context-stroke;fill-rule:evenodd;stroke:context-stroke;stroke-width:0.625;stroke-linejoin:round"
         id="path4747-0" /></marker><marker
       style="overflow:visible"
       id="Arrow2Lend-36-2"
       refX="0"
       refY="0"
       orient="auto"
       inkscape:stockid="Arrow2Lend"
       inkscape:isstock="true"><path
         transform="matrix(-1.1,0,0,-1.1,-1.1,0)"
         d="M 8.7185878,4.0337352 -2.2072895,0.01601326 8.7185884,-4.0017078 c -1.7454984,2.3720609 -1.7354408,5.6174519 -6e-7,8.035443 z"
         style="fill:context-stroke;fill-rule:evenodd;stroke:context-stroke;stroke-width:0.625;stroke-linejoin:round"
         id="path4747-0-2" /></marker><marker
       style="overflow:visible"
       id="Arrow2Lend-36-2-7"
       refX="0"
       refY="0"
       orient="auto"
       inkscape:stockid="Arrow2Lend"
       inkscape:isstock="true"><path
         transform="matrix(-1.1,0,0,-1.1,-1.1,0)"
         d="M 8.7185878,4.0337352 -2.2072895,0.01601326 8.7185884,-4.0017078 c -1.7454984,2.3720609 -1.7354408,5.6174519 -6e-7,8.035443 z"
         style="fill:context-stroke;fill-rule:evenodd;stroke:context-stroke;stroke-width:0.625;stroke-linejoin:round"
         id="path4747-0-2-3" /></marker></defs><g
     inkscape:label="Layer 1"
     inkscape:groupmode="layer"
     id="layer1"><path
       style="fill:none;stroke:#000000;stroke-width:0.265;stroke-linecap:round;stroke-linejoin:miter;stroke-miterlimit:4;stroke-dasharray:none;stroke-opacity:1"
       d="m 39.928778,116.58246 c -3.319299,20.47015 24.652964,38.89297 47.947806,39.23673"
       id="path5780-2"
       sodipodi:nodetypes="cc" /><path
       style="fill:none;stroke:#000000;stroke-width:0.265;stroke-linecap:round;stroke-linejoin:miter;stroke-miterlimit:4;stroke-dasharray:none;stroke-opacity:1"
       d="m 50.115235,116.71474 c -1.756895,22.44993 28.724574,38.9807 52.019415,39.32446"
       id="path5780-2-7"
       sodipodi:nodetypes="cc" /><path
       id="rect31"
       style="fill:#ffff00;stroke:#000000;stroke-width:0.423333;stroke-linecap:round;stop-color:#000000"
       d="m 58.952684,105.38605 h 4.852786 v 11.32418 h -4.852786 z"
       sodipodi:nodetypes="ccccc" /><path
       id="rect31-3"
       style="fill:#ffff00;stroke:#000000;stroke-width:0.423333;stroke-linecap:round;stop-color:#000000"
       d="m 70.59435,105.38605 h 4.852786 v 11.32418 H 70.59435 Z"
       sodipodi:nodetypes="ccccc" /><rect
       style="fill:#ffff00;stroke:#000000;stroke-width:0.423333;stroke-linecap:round;-inkscape-stroke:none;stop-color:#000000"
       id="rect31-36"
       width="4.8527861"
       height="11.324187"
       x="140.19826"
       y="86.844246" /><rect
       style="fill:#ffff00;stroke:#000000;stroke-width:0.423333;stroke-linecap:round;-inkscape-stroke:none;stop-color:#000000"
       id="rect31-3-7"
       width="4.8527861"
       height="11.324187"
       x="152.89816"
       y="86.844246" /><rect
       style="fill:#ffff00;stroke:#000000;stroke-width:0.423333;stroke-linecap:round;-inkscape-stroke:none;stop-color:#000000"
       id="rect31-3-7-5"
       width="4.8527861"
       height="11.324187"
       x="146.5482"
       y="86.844246" /><rect
       style="fill:#ffe680;stroke:#000000;stroke-width:0.423333;stroke-linecap:round;-inkscape-stroke:none;stop-color:#000000"
       id="rect31-36-7"
       width="4.8527861"
       height="11.324187"
       x="140.28233"
       y="149.94429" /><rect
       style="fill:#ffe680;stroke:#000000;stroke-width:0.423333;stroke-linecap:round;-inkscape-stroke:none;stop-color:#000000"
       id="rect31-3-7-0"
       width="4.8527861"
       height="11.324187"
       x="152.98224"
       y="149.94429" /><rect
       style="fill:#ffe680;stroke:#000000;stroke-width:0.423333;stroke-linecap:round;-inkscape-stroke:none;stop-color:#000000"
       id="rect31-3-7-5-9"
       width="4.8527861"
       height="11.324187"
       x="146.63228"
       y="149.94429" /><rect
       style="fill:#ffe680;stroke:#000000;stroke-width:0.423333;stroke-linecap:round;-inkscape-stroke:none;stop-color:#000000"
       id="rect31-36-7-2"
       width="4.8527861"
       height="11.324187"
       x="-230.68365"
       y="134.33498"
       transform="scale(-1,1)" /><rect
       style="fill:#ffe680;stroke:#000000;stroke-width:0.423333;stroke-linecap:round;-inkscape-stroke:none;stop-color:#000000"
       id="rect31-3-7-0-6"
       width="4.8527861"
       height="11.324187"
       x="-217.98375"
       y="134.33498"
       transform="scale(-1,1)" /><rect
       style="fill:#ffe680;stroke:#000000;stroke-width:0.423333;stroke-linecap:round;-inkscape-stroke:none;stop-color:#000000"
       id="rect31-3-7-5-9-1"
       width="4.8527861"
       height="11.324187"
       x="-224.33371"
       y="134.33498"
       transform="scale(-1,1)" /><rect
       style="fill:#ffff00;stroke:#000000;stroke-width:0.423333;stroke-linecap:round;-inkscape-stroke:none;stop-color:#000000"
       id="rect31-36-7-2-8"
       width="4.8527861"
       height="11.324187"
       x="-211.10445"
       y="134.33498"
       transform="scale(-1,1)" /><rect
       style="fill:#ffff00;stroke:#000000;stroke-width:0.423333;stroke-linecap:round;-inkscape-stroke:none;stop-color:#000000"
       id="rect31-3-7-0-6-7"
       width="4.8527861"
       height="11.324187"
       x="-198.40454"
       y="134.33498"
       transform="scale(-1,1)" /><rect
       style="fill:#ffff00;stroke:#000000;stroke-width:0.423333;stroke-linecap:round;-inkscape-stroke:none;stop-color:#000000"
       id="rect31-3-7-5-9-1-9"
       width="4.8527861"
       height="11.324187"
       x="-204.7545"
       y="134.33498"
       transform="scale(-1,1)" /><rect
       style="fill:#ffdd55;stroke:#000000;stroke-width:0.423333;stroke-linecap:round;-inkscape-stroke:none;stop-color:#000000"
       id="rect31-36-2"
       width="4.8527861"
       height="11.324187"
       x="208.01031"
       y="89.895836" /><rect
       style="fill:#00ffff;stroke:#000000;stroke-width:0.423333;stroke-linecap:round;-inkscape-stroke:none;stop-color:#000000"
       id="rect31-36-2-2"
       width="4.8527861"
       height="11.324187"
       x="201.66032"
       y="89.895836" /><rect
       style="fill:#2ad4ff;stroke:#000000;stroke-width:0.423333;stroke-linecap:round;-inkscape-stroke:none;stop-color:#000000"
       id="rect31-36-2-2-9"
       width="4.8527861"
       height="11.324187"
       x="149.43126"
       y="23.652729" /><rect
       style="fill:#ffdd55;stroke:#000000;stroke-width:0.423333;stroke-linecap:round;-inkscape-stroke:none;stop-color:#000000"
       id="rect31-3-7-9"
       width="4.8527861"
       height="11.324187"
       x="220.71022"
       y="89.895836" /><rect
       style="fill:#ffff00;stroke:#000000;stroke-width:0.423333;stroke-linecap:round;-inkscape-stroke:none;stop-color:#000000"
       id="rect31-3-7-5-1"
       width="4.8527861"
       height="11.324187"
       x="214.36026"
       y="89.895836" /><path
       id="rect31-6"
       style="fill:#ffdd55;stroke:#000000;stroke-width:0.423333;stroke-linecap:round;stop-color:#000000"
       d="m 37.256854,105.38605 h 4.852786 v 11.32418 h -4.852786 z"
       sodipodi:nodetypes="ccccc" /><path
       id="rect31-6-6"
       style="fill:#ffdd55;stroke:#000000;stroke-width:0.423333;stroke-linecap:round;stop-color:#000000"
       d="m 47.840193,105.38605 h 4.852786 v 11.32418 h -4.852786 z"
       sodipodi:nodetypes="ccccc" /><rect
       style="fill:#ffff00;stroke:#000000;stroke-width:0.423333;stroke-linecap:round;-inkscape-stroke:none;stop-color:#000000"
       id="rect31-6-9"
       width="4.8527861"
       height="11.324187"
       x="81.177689"
       y="105.38605" /><rect
       style="fill:#ffdd55;stroke:#000000;stroke-width:0.423333;stroke-linecap:round;-inkscape-stroke:none;stop-color:#000000"
       id="rect31-6-2"
       width="4.8527861"
       height="11.324187"
       x="26.144354"
       y="105.38605" /><path
       id="rect31-6-3"
       style="fill:#ff9955;stroke:#000000;stroke-width:0.423333;stroke-linecap:round;stop-color:#000000"
       d="m 76.154856,53.339977 h 4.852786 v 11.324174 h -4.852786 z"
       sodipodi:nodetypes="ccccc" /><path
       id="rect31-6-6-7"
       style="fill:#ff0000;stroke:#000000;stroke-width:0.423333;stroke-linecap:round;stop-color:#000000"
       d="m 92.029862,53.339977 h 4.852786 v 11.324174 h -4.852786 z"
       sodipodi:nodetypes="ccccc" /><rect
       style="fill:#ff9955;stroke:#000000;stroke-width:0.423333;stroke-linecap:round;-inkscape-stroke:none;stop-color:#000000"
       id="rect31-6-2-5"
       width="4.8527861"
       height="11.324187"
       x="59.75069"
       y="53.34" /><rect
       style="fill:#ffffff;stroke:none;stroke-width:0.264999;stroke-linecap:round;stroke-miterlimit:4;stroke-dasharray:none;stop-color:#000000"
       id="rect6607"
       width="45.465881"
       height="8.3089809"
       x="32.51178"
       y="121.90358" /><text
       xml:space="preserve"
       style="font-weight:300;font-size:7.05556px;line-height:1.25;font-family:'Alibaba Sans';-inkscape-font-specification:'Alibaba Sans, Light';text-align:center;letter-spacing:0px;word-spacing:0px;writing-mode:lr-tb;text-anchor:middle;stroke-width:0.264583"
       x="57.073536"
       y="127.92858"
       id="text1201"><tspan
         sodipodi:role="line"
         id="tspan1199"
         style="stroke-width:0.264583"
         x="57.073536"
         y="127.92858">concept atoms</tspan></text><text
       xml:space="preserve"
       style="font-weight:300;font-size:7.05556px;line-height:1.25;font-family:'Alibaba Sans';-inkscape-font-specification:'Alibaba Sans, Light';text-align:center;letter-spacing:0px;word-spacing:0px;writing-mode:lr-tb;text-anchor:middle;stroke-width:0.264583"
       x="149.6283"
       y="82.802177"
       id="text3076"><tspan
         sodipodi:role="line"
         id="tspan3074"
         style="stroke-width:0.264583"
         x="149.6283"
         y="82.802177">proposition<tspan
   style="font-size:65%;baseline-shift:sub"
   id="tspan3877">1</tspan></tspan></text><text
       xml:space="preserve"
       style="font-weight:300;font-size:7.05556px;line-height:1.25;font-family:'Alibaba Sans';-inkscape-font-specification:'Alibaba Sans, Light';text-align:center;letter-spacing:0px;word-spacing:0px;writing-mode:lr-tb;text-anchor:middle;stroke-width:0.264583"
       x="148.89285"
       y="168.80768"
       id="text3076-2"><tspan
         sodipodi:role="line"
         id="tspan3074-0"
         style="stroke-width:0.264583"
         x="148.89285"
         y="168.80768">proposition<tspan
   style="font-size:65%;baseline-shift:sub"
   id="tspan3877-2">2</tspan></tspan></text><path
       style="fill:none;stroke:#000000;stroke-width:0.264583px;stroke-linecap:butt;stroke-linejoin:miter;stroke-opacity:1;marker-end:url(#Arrow2Lend)"
       d="m 28.508096,116.91701 c 0.268959,45.04612 53.622777,38.85484 106.660464,38.72787"
       id="path5518"
       sodipodi:nodetypes="cc" /><path
       style="fill:none;stroke:#000000;stroke-width:0.265;stroke-linecap:round;stroke-linejoin:miter;stroke-miterlimit:4;stroke-dasharray:none;stroke-opacity:1"
       d="M 73.072236,105.33697 C 71.759565,94.238523 74.942797,87.123424 99.487062,87.889668"
       id="path5780"
       sodipodi:nodetypes="cc" /><path
       style="fill:none;stroke:#000000;stroke-width:0.265;stroke-linecap:round;stroke-linejoin:miter;stroke-miterlimit:4;stroke-dasharray:none;stroke-opacity:1"
       d="M 83.452738,105.45475 C 82.621498,99.783856 81.283909,86.227038 97.786381,87.819422"
       id="path5780-1"
       sodipodi:nodetypes="cc" /><path
       style="fill:none;stroke:#000000;stroke-width:0.265;stroke-linecap:butt;stroke-linejoin:miter;stroke-miterlimit:4;stroke-dasharray:none;stroke-opacity:1;marker-end:url(#Arrow2Lend)"
       d="M 61.556513,105.38606 C 60.715404,83.574574 96.312793,85.332217 135.86093,92.56896"
       id="path3734"
       sodipodi:nodetypes="cc" /><path
       style="fill:none;stroke:#000000;stroke-width:0.265;stroke-linecap:butt;stroke-linejoin:miter;stroke-miterlimit:4;stroke-dasharray:0.79499996,0.79499996;stroke-opacity:1;stroke-dashoffset:0"
       d="m 149.32864,146.40001 c -0.31682,-20.57629 11.74439,-25.00358 52.67826,-24.87598"
       id="path2697"
       sodipodi:nodetypes="cc" /><path
       style="fill:none;stroke:#000000;stroke-width:0.265;stroke-linecap:butt;stroke-linejoin:miter;stroke-miterlimit:4;stroke-dasharray:none;stroke-opacity:1;marker-end:url(#Arrow2Lend-36)"
       d="m 149.22507,102.74197 c -0.31682,20.57629 13.33189,18.65358 54.26576,18.52598"
       id="path3734-6" /><path
       style="fill:none;stroke:#000000;stroke-width:0.265;stroke-linecap:butt;stroke-linejoin:miter;stroke-miterlimit:4;stroke-dasharray:0.795, 0.795;stroke-dashoffset:0;stroke-opacity:1;marker-end:url(#Arrow2Lend-36-2)"
       d="M 78.852165,53.55792 C 77.832615,36.259402 135.15298,65.790649 134.68685,36.463668"
       id="path4350"
       sodipodi:nodetypes="cc" /><path
       style="fill:none;stroke:#000000;stroke-width:0.265;stroke-linecap:butt;stroke-linejoin:miter;stroke-miterlimit:4;stroke-dasharray:0.795, 0.795;stroke-dashoffset:0;stroke-opacity:1"
       d="m 62.52093,53.214666 c 1.272791,-8.818435 4.575702,-5.943729 22.703431,-5.758679"
       id="path4350-6"
       sodipodi:nodetypes="cc" /><path
       style="fill:none;stroke:#000000;stroke-width:0.265;stroke-linecap:butt;stroke-linejoin:miter;stroke-miterlimit:4;stroke-dasharray:none;stroke-opacity:1;marker-end:url(#Arrow2Lend-36-2)"
       d="M 94.638481,53.580702 C 93.452156,29.825626 125.14409,57.020436 126.45131,36.858972"
       id="path3734-6-8"
       sodipodi:nodetypes="cc" /><path
       sodipodi:nodetypes="csscssccsscsscc"
       inkscape:connector-curvature="0"
       id="path7003"
       style="font-style:normal;font-variant:normal;font-weight:normal;font-stretch:normal;font-size:300px;line-height:125%;font-family:'TeX Gyre Pagella';-inkscape-font-specification:'TeX Gyre Pagella';text-align:center;letter-spacing:0px;word-spacing:0px;writing-mode:lr-tb;text-anchor:middle;fill:#4d4d4d;fill-opacity:1;stroke:none;stroke-width:0.0791894"
       d="m 228.23427,131.29919 c -0.57969,-0.8647 -1.74084,-1.42555 -4.43294,-1.63454 l -5.89921,-0.45798 c -3.30549,-0.25662 -4.22835,-1.14277 -4.94444,-2.1067 -0.682,0.93558 -1.63847,1.89014 -4.63755,2.1067 l -6.34251,0.45798 c -2.69234,0.1944 -3.75095,0.74149 -4.46704,1.63454 0.0341,-0.8647 0.2728,-0.83199 0.88658,-1.15803 0.78429,-0.39691 2.08126,-0.88906 4.16016,-1.03917 l 6.34251,-0.45798 c 2.45379,-0.17718 3.37585,-1.61492 4.05785,-2.45128 0.68199,0.87889 1.43407,2.23334 4.16015,2.45128 l 5.72872,0.45798 c 2.35124,0.18796 3.68274,0.62808 4.46703,0.99664 0.6479,0.31187 0.88661,0.27915 0.92069,1.20056" /><path
       style="fill:none;stroke:#000000;stroke-width:0.529167;stroke-linecap:butt;stroke-linejoin:miter;stroke-dasharray:none;stroke-opacity:1;marker-end:url(#TriangleStart)"
       d="M 212.94127,126.95556 V 113.65673"
       id="path546" /><rect
       style="fill:#00ffff;stroke:#000000;stroke-width:0.423333;stroke-linecap:round;-inkscape-stroke:none;stop-color:#000000"
       id="rect31-6-7"
       width="4.8527861"
       height="11.324187"
       x="-123.22167"
       y="207.33128"
       transform="rotate(-90)" /><text
       xml:space="preserve"
       style="font-weight:300;font-size:6.35px;line-height:1.25;font-family:'Alibaba PuHuiTi';-inkscape-font-specification:'Alibaba PuHuiTi, Light';letter-spacing:0px;word-spacing:0px;stroke-width:0.264583"
       x="205.74803"
       y="108.94409"
       id="text2014"><tspan
         sodipodi:role="line"
         id="tspan2012"
         style="stroke-width:0.264583"
         x="205.74803"
         y="108.94409">how?</tspan></text><text
       xml:space="preserve"
       style="font-weight:300;font-size:6.35px;line-height:1.25;font-family:'Alibaba PuHuiTi';-inkscape-font-specification:'Alibaba PuHuiTi, Light';letter-spacing:0px;word-spacing:0px;stroke-width:0.264583"
       x="223.58534"
       y="122.41312"
       id="text2632"><tspan
         sodipodi:role="line"
         id="tspan2630"
         style="stroke-width:0.264583"
         x="223.58534"
         y="122.41312">rule<tspan
   style="font-size:65%;baseline-shift:sub"
   id="tspan3911">1</tspan></tspan></text><text
       xml:space="preserve"
       style="font-weight:300;font-size:6.35px;line-height:1.25;font-family:'Alibaba PuHuiTi';-inkscape-font-specification:'Alibaba PuHuiTi, Light';letter-spacing:0px;word-spacing:0px;stroke-width:0.264583"
       x="177.99858"
       y="118.53254"
       id="text3561"><tspan
         sodipodi:role="line"
         id="tspan3559"
         style="stroke-width:0.264583"
         x="177.99858"
         y="118.53254">query</tspan></text><g
       inkscape:label=""
       transform="translate(121.33064,26.912723)"
       id="g4240"><g
   id="surface1"
   transform="matrix(0.705556,0,0,0.705556,-203.53,-60.9837)">
    <g
   style="fill:#000000;fill-opacity:1"
   id="g32">
      <g
   id="use30"
   transform="translate(287.37399,93.917999)">
        <path
   style="stroke:none"
   d="M 3.265625,-7.09375 C 3.3125,-7.203125 3.3125,-7.234375 3.3125,-7.28125 c 0,-0.109375 -0.078125,-0.203125 -0.1875,-0.203125 -0.09375,0 -0.171875,0.0625 -0.234375,0.234375 l -1.75,4.578125 C 1.125,-2.609375 1.09375,-2.546875 1.09375,-2.5 c 0,0.03125 0,0.0625 0.046875,0.171875 L 2.890625,2.25 C 2.9375,2.359375 2.984375,2.5 3.125,2.5 c 0.109375,0 0.1875,-0.09375 0.1875,-0.203125 0,-0.03125 0,-0.046875 -0.046875,-0.15625 L 1.5,-2.5 Z m 0,0"
   id="path57" />
      </g>
    </g>
    <g
   style="fill:#000000;fill-opacity:1"
   id="g38">
      <g
   id="use34"
   transform="translate(291.24799,93.917999)">
        <path
   style="stroke:none"
   d="M 4.359375,-0.0625 C 5.90625,-0.640625 7.375,-2.421875 7.375,-4.34375 c 0,-1.609375 -1.0625,-2.6875 -2.546875,-2.6875 -2.140625,0 -4.34375,2.265625 -4.34375,4.59375 0,1.65625 1.125,2.65625 2.5625,2.65625 0.25,0 0.578125,-0.046875 0.96875,-0.15625 -0.03125,0.625 -0.03125,0.640625 -0.03125,0.78125 0,0.3125 0,1.09375 0.828125,1.09375 1.171875,0 1.65625,-1.828125 1.65625,-1.9375 0,-0.0625 -0.0625,-0.09375 -0.109375,-0.09375 -0.078125,0 -0.09375,0.046875 -0.125,0.109375 C 6,0.71875 5.421875,0.96875 5.078125,0.96875 c -0.46875,0 -0.609375,-0.265625 -0.71875,-1.03125 z m -1.875,-0.078125 c -0.78125,-0.3125 -1.125,-1.078125 -1.125,-1.984375 0,-0.6875 0.265625,-2.109375 1.015625,-3.171875 C 3.109375,-6.3125 4.046875,-6.78125 4.78125,-6.78125 5.765625,-6.78125 6.5,-6 6.5,-4.671875 c 0,1 -0.515625,3.34375 -2.1875,4.265625 -0.046875,-0.34375 -0.140625,-1.0625 -0.875,-1.0625 -0.53125,0 -1.015625,0.484375 -1.015625,1.015625 0,0.1875 0.0625,0.296875 0.0625,0.3125 z M 3.09375,-0.03125 c -0.140625,0 -0.453125,0 -0.453125,-0.421875 0,-0.40625 0.375,-0.796875 0.796875,-0.796875 0.421875,0 0.609375,0.234375 0.609375,0.84375 0,0.140625 -0.015625,0.15625 -0.109375,0.203125 C 3.671875,-0.09375 3.375,-0.03125 3.09375,-0.03125 Z m 0,0"
   id="path61" />
      </g>
      <g
   id="use36"
   transform="translate(299.12442,93.917999)">
        <path
   style="stroke:none"
   d="m 2.03125,-0.015625 c 0,-0.65625 -0.25,-1.046875 -0.640625,-1.046875 -0.328125,0 -0.53125,0.25 -0.53125,0.53125 C 0.859375,-0.265625 1.0625,0 1.390625,0 1.5,0 1.640625,-0.046875 1.734375,-0.125 1.765625,-0.15625 1.78125,-0.15625 1.78125,-0.15625 c 0.015625,0 0.015625,0 0.015625,0.140625 0,0.75 -0.34375,1.34375 -0.671875,1.671875 -0.109375,0.109375 -0.109375,0.125 -0.109375,0.15625 0,0.078125 0.046875,0.109375 0.09375,0.109375 0.109375,0 0.921875,-0.765625 0.921875,-1.9375 z m 0,0"
   id="path65" />
      </g>
    </g>
    <g
   style="fill:#000000;fill-opacity:1"
   id="g42">
      <g
   id="use40"
   transform="translate(303.55579,93.917999)">
        <path
   style="stroke:none"
   d="M 5.078125,-4.03125 C 5.0625,-4.0625 5.03125,-4.140625 5.03125,-4.171875 c 0,0 0.171875,-0.140625 0.28125,-0.21875 l 1.75,-1.34375 C 8,-6.4375 8.390625,-6.46875 8.6875,-6.5 8.765625,-6.515625 8.859375,-6.515625 8.859375,-6.703125 8.859375,-6.734375 8.828125,-6.8125 8.75,-6.8125 c -0.21875,0 -0.46875,0.03125 -0.703125,0.03125 -0.359375,0 -0.75,-0.03125 -1.109375,-0.03125 -0.0625,0 -0.1875,0 -0.1875,0.203125 0,0.0625 0.046875,0.09375 0.125,0.109375 0.21875,0.015625 0.296875,0.0625 0.296875,0.203125 0,0.1875 -0.296875,0.421875 -0.359375,0.46875 L 2.9375,-2.84375 3.734375,-6.046875 C 3.8125,-6.40625 3.84375,-6.5 4.5625,-6.5 c 0.25,0 0.34375,0 0.34375,-0.203125 0,-0.078125 -0.078125,-0.109375 -0.140625,-0.109375 -0.28125,0 -1,0.03125 -1.28125,0.03125 C 3.203125,-6.78125 2.5,-6.8125 2.203125,-6.8125 2.140625,-6.8125 2,-6.8125 2,-6.625 2,-6.5 2.09375,-6.5 2.296875,-6.5 c 0.125,0 0.3125,0.015625 0.421875,0.015625 0.15625,0.03125 0.21875,0.046875 0.21875,0.171875 0,0.03125 0,0.0625 -0.03125,0.1875 L 1.5625,-0.78125 c -0.09375,0.390625 -0.109375,0.46875 -0.90625,0.46875 -0.171875,0 -0.28125,0 -0.28125,0.1875 C 0.375,0 0.5,0 0.53125,0 0.8125,0 1.515625,-0.03125 1.796875,-0.03125 2,-0.03125 2.21875,-0.015625 2.4375,-0.015625 2.65625,-0.015625 2.875,0 3.078125,0 3.15625,0 3.28125,0 3.28125,-0.203125 3.28125,-0.3125 3.1875,-0.3125 3,-0.3125 c -0.375,0 -0.640625,0 -0.640625,-0.171875 0,-0.078125 0.046875,-0.296875 0.078125,-0.4375 C 2.578125,-1.453125 2.71875,-1.96875 2.84375,-2.5 l 1.484375,-1.15625 1.15625,2.6875 c 0.125,0.265625 0.125,0.296875 0.125,0.34375 0,0.3125 -0.4375,0.3125 -0.53125,0.3125 -0.109375,0 -0.21875,0 -0.21875,0.203125 C 4.859375,0 4.984375,0 5,0 5.40625,0 5.828125,-0.03125 6.21875,-0.03125 6.4375,-0.03125 6.984375,0 7.203125,0 7.25,0 7.375,0 7.375,-0.203125 7.375,-0.3125 7.265625,-0.3125 7.171875,-0.3125 c -0.40625,0 -0.53125,-0.09375 -0.6875,-0.4375 z m 0,0"
   id="path69" />
      </g>
    </g>
    <g
   style="fill:#000000;fill-opacity:1"
   id="g46">
      <g
   id="use44"
   transform="translate(312.72601,93.917999)">
        <path
   style="stroke:none"
   d="M 2.71875,-2.328125 C 2.765625,-2.4375 2.765625,-2.46875 2.765625,-2.5 c 0,-0.015625 0,-0.046875 -0.046875,-0.15625 L 0.984375,-7.25 c -0.0625,-0.171875 -0.125,-0.234375 -0.234375,-0.234375 -0.109375,0 -0.203125,0.09375 -0.203125,0.203125 0,0.03125 0,0.046875 0.046875,0.15625 L 2.359375,-2.5 0.59375,2.109375 C 0.546875,2.21875 0.546875,2.25 0.546875,2.296875 0.546875,2.40625 0.640625,2.5 0.75,2.5 0.875,2.5 0.921875,2.390625 0.953125,2.296875 Z m 0,0"
   id="path73" />
      </g>
    </g>
    <g
   style="fill:#000000;fill-opacity:1"
   id="g50">
      <g
   id="use48"
   transform="translate(316.60001,93.917999)">
        <path
   style="stroke:none"
   d="M 6.265625,-5.671875 C 6.75,-6.453125 7.171875,-6.484375 7.53125,-6.5 c 0.125,-0.015625 0.140625,-0.171875 0.140625,-0.1875 0,-0.078125 -0.0625,-0.125 -0.140625,-0.125 -0.25,0 -0.546875,0.03125 -0.8125,0.03125 -0.328125,0 -0.671875,-0.03125 -0.984375,-0.03125 -0.0625,0 -0.1875,0 -0.1875,0.1875 0,0.109375 0.078125,0.125 0.15625,0.125 0.265625,0.015625 0.453125,0.125 0.453125,0.328125 0,0.15625 -0.140625,0.375 -0.140625,0.375 l -3.0625,4.875 -0.6875,-5.28125 C 2.265625,-6.375 2.5,-6.5 2.953125,-6.5 c 0.140625,0 0.25,0 0.25,-0.203125 0,-0.078125 -0.078125,-0.109375 -0.125,-0.109375 -0.40625,0 -0.828125,0.03125 -1.25,0.03125 -0.171875,0 -0.359375,0 -0.546875,0 -0.171875,0 -0.359375,-0.03125 -0.53125,-0.03125 -0.078125,0 -0.1875,0 -0.1875,0.1875 0,0.125 0.078125,0.125 0.25,0.125 0.546875,0 0.5625,0.09375 0.59375,0.34375 L 2.1875,-0.015625 C 2.21875,0.1875 2.265625,0.21875 2.390625,0.21875 c 0.15625,0 0.203125,-0.046875 0.28125,-0.171875 z m 0,0"
   id="path77" />
      </g>
    </g>
  </g>
</g></g></svg>
