<?xml version="1.0" encoding="UTF-8" standalone="no"?>
<!-- Created with Inkscape (http://www.inkscape.org/) -->

<svg
   width="210mm"
   height="297mm"
   viewBox="0 0 210 297"
   version="1.1"
   id="svg5"
   inkscape:version="1.2.2 (1:1.2.2+202212051550+b0a8486541)"
   sodipodi:docname="no-free-lunch.svg"
   xmlns:inkscape="http://www.inkscape.org/namespaces/inkscape"
   xmlns:sodipodi="http://sodipodi.sourceforge.net/DTD/sodipodi-0.dtd"
   xmlns="http://www.w3.org/2000/svg"
   xmlns:svg="http://www.w3.org/2000/svg">
  <sodipodi:namedview
     id="namedview7"
     pagecolor="#ffffff"
     bordercolor="#cccccc"
     borderopacity="1"
     inkscape:showpageshadow="0"
     inkscape:pageopacity="1"
     inkscape:pagecheckerboard="0"
     inkscape:deskcolor="#ffffff"
     inkscape:document-units="mm"
     showgrid="false"
     inkscape:zoom="1"
     inkscape:cx="331"
     inkscape:cy="908.5"
     inkscape:window-width="1920"
     inkscape:window-height="1057"
     inkscape:window-x="0"
     inkscape:window-y="0"
     inkscape:window-maximized="1"
     inkscape:current-layer="layer1"
     showborder="false" />
  <defs
     id="defs2">
    <marker
       style="overflow:visible"
       id="Arrow2"
       refX="0"
       refY="0"
       orient="auto-start-reverse"
       inkscape:stockid="Arrow2"
       markerWidth="9.3252497"
       markerHeight="6.7820001"
       viewBox="0 0 7.7 5.6"
       inkscape:isstock="true"
       inkscape:collect="always"
       preserveAspectRatio="xMidYMid">
      <path
         transform="scale(0.7)"
         d="M -2,-4 9,0 -2,4 c 2,-2.33 2,-5.66 0,-8 z"
         style="fill:context-stroke;fill-rule:evenodd;stroke:none"
         id="arrow2L" />
    </marker>
    <marker
       style="overflow:visible"
       id="Arrow4"
       refX="0"
       refY="0"
       orient="auto-start-reverse"
       inkscape:stockid="Arrow4"
       markerWidth="5"
       markerHeight="6"
       viewBox="0 0 5 6"
       inkscape:isstock="true"
       inkscape:collect="always"
       preserveAspectRatio="xMidYMid">
      <path
         style="fill:context-stroke;fill-rule:evenodd;stroke:none"
         d="m 1,0 -3,3 h -2 l 3,-3 -3,-3 h 2 z"
         id="path1741" />
    </marker>
    <marker
       style="overflow:visible"
       id="Arrow2-2"
       refX="0"
       refY="0"
       orient="auto-start-reverse"
       inkscape:stockid="Arrow2"
       markerWidth="9.3252497"
       markerHeight="6.7820001"
       viewBox="0 0 7.7 5.6"
       inkscape:isstock="true"
       inkscape:collect="always"
       preserveAspectRatio="xMidYMid">
      <path
         transform="scale(0.7)"
         d="M -2,-4 9,0 -2,4 c 2,-2.33 2,-5.66 0,-8 z"
         style="fill:context-stroke;fill-rule:evenodd;stroke:none"
         id="arrow2L-9" />
    </marker>
  </defs>
  <g
     inkscape:label="Layer 1"
     inkscape:groupmode="layer"
     id="layer1">
    <path
       style="fill:none;stroke:#000000;stroke-width:0.529167;stroke-linecap:butt;stroke-linejoin:miter;stroke-dasharray:none;stroke-opacity:1;marker-start:url(#Arrow4);marker-end:url(#Arrow4)"
       d="M 28.596506,42.250759 V 121.0012 h 85.194614"
       id="path122"
       inkscape:export-filename="no-free-lunch.png"
       inkscape:export-xdpi="192"
       inkscape:export-ydpi="192" />
    <path
       id="path1181"
       style="fill:none;stroke:#ff0000;stroke-width:0.529167;stroke-linecap:round;stop-color:#000000"
       d="m 116.0928,83.422112 c 0.23533,10.897594 -2.11419,26.119268 -15.70738,28.680918 -9.776968,1.84248 -17.777072,-7.5523 -26.745979,-11.13125 C 64.279457,97.236773 51.886018,97.891953 45.397804,90.180746 40.485411,84.342399 37.244884,74.355865 41.004175,67.716171 46.928676,57.252247 62.900607,55.566387 74.924631,55.438377 c 10.719194,-0.11412 22.105198,3.589647 30.465619,10.299154 5.3738,4.312637 10.55379,10.795864 10.70255,17.684581 z"
       sodipodi:nodetypes="asaaaaaa" />
    <path
       id="path1181-7"
       style="fill:none;stroke:#0000ff;stroke-width:0.529167;stroke-linecap:round;stop-color:#000000"
       d="m 108.61221,186.81835 c 8.09008,31.9799 -7.75318,39.28427 -37.00481,39.81219 -10.714427,0.0815 -23.649265,0.49912 -31.393678,-6.90559 -8.976787,-8.58303 -13.421861,-24.16799 -9.62763,-35.99401 3.740029,-11.6571 16.549962,-20.11273 28.360393,-23.33597 11.834666,-3.22978 26.080978,-0.99407 36.357458,5.70557 6.875837,4.48261 11.472477,13.59396 13.308267,20.71781 z"
       sodipodi:nodetypes="ccaaaac"
       inkscape:export-filename="no-free-lunch-2.png"
       inkscape:export-xdpi="192"
       inkscape:export-ydpi="192" />
    <text
       xml:space="preserve"
       style="font-weight:300;font-size:6.35px;line-height:1.25;font-family:'Alibaba PuHuiTi';-inkscape-font-specification:'Alibaba PuHuiTi, Light';letter-spacing:0px;word-spacing:0px;stroke-width:0.264583"
       x="101.1929"
       y="101.44985"
       id="text1386"><tspan
         sodipodi:role="line"
         id="tspan1384"
         style="stroke-width:0.264583"
         x="101.1929"
         y="101.44985" /></text>
    <text
       xml:space="preserve"
       style="font-weight:300;font-size:3.52778px;line-height:1.25;font-family:'Alibaba PuHuiTi';-inkscape-font-specification:'Alibaba PuHuiTi, Light';letter-spacing:0px;word-spacing:0px;fill:#ff0000;stroke-width:0.264583"
       x="59.699627"
       y="79.589211"
       id="text1390"><tspan
         sodipodi:role="line"
         id="tspan1388"
         style="font-size:3.52778px;fill:#ff0000;stroke-width:0.264583"
         x="59.699627"
         y="79.589211">●</tspan></text>
    <text
       xml:space="preserve"
       style="font-weight:300;font-size:3.52778px;line-height:1.25;font-family:'Alibaba PuHuiTi';-inkscape-font-specification:'Alibaba PuHuiTi, Light';letter-spacing:0px;word-spacing:0px;fill:#000000;stroke-width:0.264583"
       x="156.19235"
       y="112.09514"
       id="text1390-5"><tspan
         sodipodi:role="line"
         id="tspan1388-9"
         style="font-size:3.52778px;fill:#000000;stroke-width:0.264583"
         x="156.19235"
         y="112.09514">●</tspan></text>
    <text
       xml:space="preserve"
       style="font-weight:300;font-size:3.52778px;line-height:1.25;font-family:'Alibaba PuHuiTi';-inkscape-font-specification:'Alibaba PuHuiTi, Light';letter-spacing:0px;word-spacing:0px;fill:#000000;stroke-width:0.264583"
       x="171.80278"
       y="110.50764"
       id="text1390-5-2"><tspan
         sodipodi:role="line"
         id="tspan1388-9-9"
         style="font-size:3.52778px;fill:#000000;stroke-width:0.264583"
         x="171.80278"
         y="110.50764">●</tspan></text>
    <text
       xml:space="preserve"
       style="font-weight:300;font-size:3.52778px;line-height:1.25;font-family:'Alibaba PuHuiTi';-inkscape-font-specification:'Alibaba PuHuiTi, Light';letter-spacing:0px;word-spacing:0px;fill:#000000;stroke-width:0.264583"
       x="141.11111"
       y="112.09514"
       id="text1390-5-3"><tspan
         sodipodi:role="line"
         id="tspan1388-9-1"
         style="font-size:3.52778px;fill:#000000;stroke-width:0.264583"
         x="141.11111"
         y="112.09514">●</tspan></text>
    <text
       xml:space="preserve"
       style="font-weight:300;font-size:6.35px;line-height:1.25;font-family:'Alibaba PuHuiTi';-inkscape-font-specification:'Alibaba PuHuiTi, Light';letter-spacing:0px;word-spacing:0px;stroke-width:0.264583"
       x="43.374741"
       y="113.19908"
       id="text1532"><tspan
         sodipodi:role="line"
         id="tspan1530"
         style="stroke-width:0.264583"
         x="43.374741"
         y="113.19908">▴</tspan></text>
    <text
       xml:space="preserve"
       style="font-weight:300;font-size:6.35px;line-height:1.25;font-family:'Alibaba PuHuiTi';-inkscape-font-specification:'Alibaba PuHuiTi, Light';letter-spacing:0px;word-spacing:0px;stroke-width:0.264583"
       x="33.25769"
       y="131.83417"
       id="text1532-5"><tspan
         sodipodi:role="line"
         id="tspan1530-3"
         style="stroke-width:0.264583"
         x="33.25769"
         y="131.83417">▴ = random starting points</tspan><tspan
         sodipodi:role="line"
         style="stroke-width:0.264583"
         x="33.25769"
         y="140.34465"
         id="tspan2010"><tspan
   style="font-size:3.52778px"
   id="tspan2062">●</tspan> = target</tspan></text>
    <text
       xml:space="preserve"
       style="font-weight:300;font-size:6.35px;line-height:1.25;font-family:'Alibaba PuHuiTi';-inkscape-font-specification:'Alibaba PuHuiTi, Light';letter-spacing:0px;word-spacing:0px;stroke-width:0.264583"
       x="87.54129"
       y="82.414772"
       id="text1536"><tspan
         sodipodi:role="line"
         id="tspan1534"
         style="fill:#ff0000;stroke-width:0.264583"
         x="87.54129"
         y="82.414772">▴</tspan></text>
    <path
       style="font-variation-settings:normal;opacity:1;vector-effect:none;fill:none;fill-opacity:1;stroke:#000000;stroke-width:0.396875;stroke-linecap:butt;stroke-linejoin:miter;stroke-miterlimit:4;stroke-dasharray:none;stroke-dashoffset:0;stroke-opacity:1;-inkscape-stroke:none;marker-end:url(#Arrow2);stop-color:#000000;stop-opacity:1"
       d="m 45.399373,108.42422 c -1.675956,-6.19051 6.9691,-7.44906 9.75915,-11.716817 2.790055,-4.267747 -5.535192,-7.280217 2.137895,-14.528681"
       id="path1570"
       sodipodi:nodetypes="csc" />
    <path
       style="fill:none;stroke:#ff0000;stroke-width:0.396875;stroke-linecap:butt;stroke-linejoin:miter;stroke-dasharray:none;stroke-opacity:1;marker-end:url(#Arrow2)"
       d="m 86.895635,80.561442 c -9.522354,-6.496967 -8.927497,6.162777 -20.248338,-0.39361"
       id="path1572"
       sodipodi:nodetypes="cc" />
    <text
       xml:space="preserve"
       style="font-weight:300;font-size:6.35px;line-height:1.25;font-family:'Alibaba PuHuiTi';-inkscape-font-specification:'Alibaba PuHuiTi, Light';letter-spacing:0px;word-spacing:0px;stroke-width:0.264583"
       x="65.88781"
       y="66.502014"
       id="text2102"><tspan
         sodipodi:role="line"
         id="tspan2100"
         style="fill:#ff0000;stroke-width:0.264583"
         x="65.88781"
         y="66.502014">space B</tspan></text>
    <text
       xml:space="preserve"
       style="font-weight:300;font-size:6.35px;line-height:1.25;font-family:'Alibaba PuHuiTi';-inkscape-font-specification:'Alibaba PuHuiTi, Light';letter-spacing:0px;word-spacing:0px;stroke-width:0.264583"
       x="35.147705"
       y="49.269024"
       id="text2106"><tspan
         sodipodi:role="line"
         id="tspan2104"
         style="stroke-width:0.264583"
         x="35.147705"
         y="49.269024">space A</tspan></text>
    <path
       id="path1181-2"
       style="fill:none;stroke:#ff0000;stroke-width:0.529167;stroke-linecap:round;stroke-dasharray:none;stop-color:#000000"
       d="m 94.712721,177.18003 c 3.312472,7.47396 6.085779,18.68754 -2.58135,24.38909 -6.233891,4.10085 -14.485822,-0.0889 -21.727367,0.0264 -7.557301,0.11979 -15.945125,4.15564 -22.664134,0.6941 -5.087139,-2.62081 -10.21612,-8.59566 -9.5334,-14.27735 1.075927,-8.95411 11.642456,-14.73704 19.926986,-18.30077 7.385505,-3.17704 16.335931,-3.90452 24.061137,-1.67735 4.96549,1.43153 10.424207,4.4213 12.518125,9.1458 z"
       sodipodi:nodetypes="asaaaaaa" />
    <text
       xml:space="preserve"
       style="font-weight:300;font-size:3.52778px;line-height:1.25;font-family:'Alibaba PuHuiTi';-inkscape-font-specification:'Alibaba PuHuiTi, Light';letter-spacing:0px;word-spacing:0px;fill:#000000;stroke-width:0.264583"
       x="51.244164"
       y="188.4753"
       id="text1390-7"><tspan
         sodipodi:role="line"
         id="tspan1388-0"
         style="font-size:3.52778px;fill:#000000;stroke-width:0.264583"
         x="51.244164"
         y="188.4753">●</tspan></text>
    <text
       xml:space="preserve"
       style="font-weight:300;font-size:6.35px;line-height:1.25;font-family:'Alibaba PuHuiTi';-inkscape-font-specification:'Alibaba PuHuiTi, Light';letter-spacing:0px;word-spacing:0px;stroke-width:0.264583;fill:#0000ff"
       x="50.794277"
       y="215.73526"
       id="text1532-9"><tspan
         sodipodi:role="line"
         id="tspan1530-36"
         style="stroke-width:0.264583;fill:#0000ff"
         x="50.794277"
         y="215.73526">▴</tspan></text>
    <text
       xml:space="preserve"
       style="font-weight:300;font-size:6.35px;line-height:1.25;font-family:'Alibaba PuHuiTi';-inkscape-font-specification:'Alibaba PuHuiTi, Light';letter-spacing:0px;word-spacing:0px;stroke-width:0.264583"
       x="79.0858"
       y="191.30086"
       id="text1536-1"><tspan
         sodipodi:role="line"
         id="tspan1534-8"
         style="fill:#ff0000;stroke-width:0.264583"
         x="79.0858"
         y="191.30086">▴</tspan></text>
    <path
       style="font-variation-settings:normal;vector-effect:none;fill:none;fill-opacity:1;stroke:#0000ff;stroke-width:0.396875;stroke-linecap:butt;stroke-linejoin:miter;stroke-miterlimit:4;stroke-dasharray:none;stroke-dashoffset:0;stroke-opacity:1;-inkscape-stroke:none;marker-end:url(#Arrow2-2);stop-color:#000000"
       d="m 49.88084,213.50773 c -3.456633,-0.93303 -5.967869,-3.6465 -3.177819,-7.91426 2.790057,-4.26775 -5.535187,-7.28022 2.137897,-14.52868"
       id="path1570-7"
       sodipodi:nodetypes="csc" />
    <path
       style="fill:none;stroke:#ff0000;stroke-width:0.396875;stroke-linecap:butt;stroke-linejoin:miter;stroke-dasharray:none;stroke-opacity:1;marker-end:url(#Arrow2-2)"
       d="m 78.440123,189.44751 c -9.522354,-6.49697 -8.927494,6.16278 -20.248328,-0.39361"
       id="path1572-9"
       sodipodi:nodetypes="cc" />
    <text
       xml:space="preserve"
       style="font-weight:300;font-size:6.35px;line-height:1.25;font-family:'Alibaba PuHuiTi';-inkscape-font-specification:'Alibaba PuHuiTi, Light';letter-spacing:0px;word-spacing:0px;stroke-width:0.264583"
       x="54.786526"
       y="179.09221"
       id="text2102-2"><tspan
         sodipodi:role="line"
         id="tspan2100-0"
         style="fill:#ff0000;stroke-width:0.264583"
         x="54.786526"
         y="179.09221">space B</tspan></text>
    <text
       xml:space="preserve"
       style="font-weight:300;font-size:6.35px;line-height:1.25;font-family:'Alibaba PuHuiTi';-inkscape-font-specification:'Alibaba PuHuiTi, Light';letter-spacing:0px;word-spacing:0px;stroke-width:0.264583;fill:#0000ff"
       x="70.083916"
       y="221.12592"
       id="text2106-2"><tspan
         sodipodi:role="line"
         id="tspan2104-3"
         style="stroke-width:0.264583;fill:#0000ff"
         x="70.083916"
         y="221.12592">space A</tspan></text>
    <text
       xml:space="preserve"
       style="font-weight:300;font-size:6.35px;line-height:1.25;font-family:'Alibaba PuHuiTi';-inkscape-font-specification:'Alibaba PuHuiTi, Light';letter-spacing:0px;word-spacing:0px;stroke-width:0.264583"
       x="31.626724"
       y="234.23018"
       id="text2510"><tspan
         sodipodi:role="line"
         style="stroke-width:0.264583"
         x="31.626724"
         y="234.23018"
         id="tspan2512">ambient function space</tspan></text>
    <g
       inkscape:label=""
       transform="translate(100.03793,229.35398)"
       id="g2709">
      <g
         id="surface1"
         transform="matrix(0.705556,0,0,0.705556,-213.041,-61.4578)">
        <g
           style="fill:#000000;fill-opacity:1"
           id="g14">
          <g
             id="use12"
             transform="translate(301.745,93.917999)">
            <path
               style="stroke:none"
               d="M 3.296875,-3.34375 C 3.421875,-3.8125 3.5625,-4.3125 3.65625,-4.796875 3.78125,-5.46875 3.84375,-6.125 3.84375,-6.25 c 0,-0.5625 -0.546875,-0.5625 -0.65625,-0.5625 -0.765625,0 -1.4375,0.28125 -1.90625,0.609375 C 0.46875,-5.65625 0.203125,-5 0.203125,-4.9375 c 0,0.0625 0.078125,0.0625 0.109375,0.0625 0.078125,0 0.546875,-0.125 0.75,-0.5 0.265625,-0.5 0.5625,-0.890625 1.453125,-0.890625 C 2.9375,-6.265625 3,-5.984375 3,-5.828125 3,-5.8125 2.96875,-5.34375 2.84375,-4.65625 2.796875,-4.375 2.765625,-4.203125 2.5625,-3.34375 H 2.203125 c -0.28125,0.015625 -0.734375,0.328125 -0.734375,0.484375 0,0.0625 0,0.0625 0.21875,0.0625 h 0.71875 c -0.203125,0.703125 -0.484375,1.65625 -0.9375,2.875 C 1.375,0.3125 1.375,0.328125 1.375,0.34375 c 0,0.0625 0.078125,0.0625 0.09375,0.0625 0.140625,0 0.453125,-0.125 0.65625,-0.328125 C 2.171875,0.015625 2.1875,0 2.234375,-0.09375 2.578125,-0.984375 2.875,-1.875 3.140625,-2.796875 h 2.25 c 0.109375,0 0.296875,0 0.453125,-0.09375 -0.109375,0.421875 -0.515625,2.046875 -0.515625,2.828125 0,0.296875 0.171875,0.546875 0.59375,0.546875 1.328125,0 2.0625,-0.828125 2.0625,-1.140625 0,-0.0625 -0.046875,-0.078125 -0.09375,-0.078125 -0.078125,0 -0.609375,0.140625 -0.765625,0.53125 C 7.09375,-0.125 7.078125,-0.125 6.890625,-0.09375 6.78125,-0.0625 6.59375,-0.0625 6.578125,-0.0625 c -0.171875,0 -0.40625,-0.109375 -0.40625,-0.421875 0,-0.125 0.0625,-0.671875 0.09375,-0.890625 C 6.4375,-2.484375 6.921875,-4.359375 7.78125,-6.625 7.8125,-6.703125 7.8125,-6.71875 7.8125,-6.734375 7.8125,-6.8125 7.75,-6.8125 7.71875,-6.8125 c -0.15625,0 -0.4375,0.140625 -0.625,0.3125 -0.015625,0.015625 -0.078125,0.0625 -0.109375,0.15625 -0.40625,0.984375 -0.71875,1.984375 -1.015625,3 z m 0,0"
               id="path21" />
          </g>
        </g>
      </g>
    </g>
    <path
       id="path1181-7-0"
       style="fill:none;stroke:#0000ff;stroke-width:0.529167;stroke-linecap:round;stop-color:#000000"
       d="m 243.20777,185.27706 c 8.09008,31.9799 -7.75318,39.28427 -37.0048,39.81219 -10.71443,0.0815 -23.64927,0.49912 -31.39368,-6.90559 -8.97679,-8.58303 -13.42186,-24.16799 -9.62763,-35.99401 3.74003,-11.6571 16.54996,-20.11273 28.36039,-23.33597 11.83467,-3.22978 26.08098,-0.99407 36.35746,5.70557 6.87583,4.48261 11.47248,13.59396 13.30826,20.71781 z"
       sodipodi:nodetypes="ccaaaac"
       inkscape:export-filename="no-free-lunch-2.png"
       inkscape:export-xdpi="192"
       inkscape:export-ydpi="192" />
    <path
       id="path1181-2-3"
       style="fill:none;stroke:#ff0000;stroke-width:0.529167;stroke-linecap:round;stroke-dasharray:none;stop-color:#000000"
       d="m 229.30829,175.63874 c 3.31247,7.47396 6.08577,18.68754 -2.58135,24.38909 -6.23389,4.10085 -14.48583,-0.0889 -21.72737,0.0264 -7.5573,0.11979 -15.94513,4.15564 -22.66414,0.6941 -5.08713,-2.62081 -10.21612,-8.59566 -9.5334,-14.27735 1.07593,-8.95411 11.64246,-14.73704 19.92699,-18.30077 7.38551,-3.17704 16.33593,-3.90452 24.06114,-1.67735 4.96549,1.43153 10.4242,4.4213 12.51812,9.1458 z"
       sodipodi:nodetypes="asaaaaaa" />
    <text
       xml:space="preserve"
       style="font-weight:300;font-size:3.52778px;line-height:1.25;font-family:'Alibaba PuHuiTi';-inkscape-font-specification:'Alibaba PuHuiTi, Light';letter-spacing:0px;word-spacing:0px;fill:#000000;stroke-width:0.264583"
       x="185.83972"
       y="185.87569"
       id="text1390-7-6"><tspan
         sodipodi:role="line"
         id="tspan1388-0-1"
         style="font-size:3.52778px;fill:#000000;stroke-width:0.264583"
         x="185.83972"
         y="185.87569">●</tspan></text>
    <text
       xml:space="preserve"
       style="font-weight:300;font-size:3.52778px;line-height:1.25;font-family:'Alibaba PuHuiTi';-inkscape-font-specification:'Alibaba PuHuiTi, Light';letter-spacing:0px;word-spacing:0px;fill:#000000;stroke-width:0.264583"
       x="198.79028"
       y="193.05765"
       id="text1390-7-6-4"><tspan
         sodipodi:role="line"
         id="tspan1388-0-1-5"
         style="font-size:3.52778px;fill:#000000;stroke-width:0.264583"
         x="198.79028"
         y="193.05765">●</tspan></text>
    <text
       xml:space="preserve"
       style="font-weight:300;font-size:3.52778px;line-height:1.25;font-family:'Alibaba PuHuiTi';-inkscape-font-specification:'Alibaba PuHuiTi, Light';letter-spacing:0px;word-spacing:0px;fill:#000000;stroke-width:0.264583"
       x="196.67361"
       y="183.26807"
       id="text1390-7-6-2"><tspan
         sodipodi:role="line"
         id="tspan1388-0-1-54"
         style="font-size:3.52778px;fill:#000000;stroke-width:0.264583"
         x="196.67361"
         y="183.26807">●</tspan></text>
    <text
       xml:space="preserve"
       style="font-weight:300;font-size:3.52778px;line-height:1.25;font-family:'Alibaba PuHuiTi';-inkscape-font-specification:'Alibaba PuHuiTi, Light';letter-spacing:0px;word-spacing:0px;fill:#000000;stroke-width:0.264583"
       x="205.40482"
       y="176.91794"
       id="text1390-7-6-7"><tspan
         sodipodi:role="line"
         id="tspan1388-0-1-4"
         style="font-size:3.52778px;fill:#000000;stroke-width:0.264583"
         x="205.40482"
         y="176.91794">●</tspan></text>
    <text
       xml:space="preserve"
       style="font-weight:300;font-size:3.52778px;line-height:1.25;font-family:'Alibaba PuHuiTi';-inkscape-font-specification:'Alibaba PuHuiTi, Light';letter-spacing:0px;word-spacing:0px;fill:#000000;stroke-width:0.264583"
       x="211.22569"
       y="173.74307"
       id="text1390-7-6-43"><tspan
         sodipodi:role="line"
         id="tspan1388-0-1-0"
         style="font-size:3.52778px;fill:#000000;stroke-width:0.264583"
         x="211.22569"
         y="173.74307">●</tspan></text>
    <text
       xml:space="preserve"
       style="font-weight:300;font-size:3.52778px;line-height:1.25;font-family:'Alibaba PuHuiTi';-inkscape-font-specification:'Alibaba PuHuiTi, Light';letter-spacing:0px;word-spacing:0px;fill:#000000;stroke-width:0.264583"
       x="213.71736"
       y="178.68918"
       id="text1390-7-6-78"><tspan
         sodipodi:role="line"
         id="tspan1388-0-1-6"
         style="font-size:3.52778px;fill:#000000;stroke-width:0.264583"
         x="213.71736"
         y="178.68918">●</tspan></text>
    <text
       xml:space="preserve"
       style="font-weight:300;font-size:3.52778px;line-height:1.25;font-family:'Alibaba PuHuiTi';-inkscape-font-specification:'Alibaba PuHuiTi, Light';letter-spacing:0px;word-spacing:0px;fill:#000000;stroke-width:0.264583"
       x="224.98402"
       y="184.06181"
       id="text1390-7-6-8"><tspan
         sodipodi:role="line"
         id="tspan1388-0-1-8"
         style="font-size:3.52778px;fill:#000000;stroke-width:0.264583"
         x="224.98402"
         y="184.06181">●</tspan></text>
    <text
       xml:space="preserve"
       style="font-weight:300;font-size:3.52778px;line-height:1.25;font-family:'Alibaba PuHuiTi';-inkscape-font-specification:'Alibaba PuHuiTi, Light';letter-spacing:0px;word-spacing:0px;fill:#000000;stroke-width:0.264583"
       x="213.87152"
       y="191.47015"
       id="text1390-7-6-431"><tspan
         sodipodi:role="line"
         id="tspan1388-0-1-49"
         style="font-size:3.52778px;fill:#000000;stroke-width:0.264583"
         x="213.87152"
         y="191.47015">●</tspan></text>
    <text
       xml:space="preserve"
       style="font-weight:300;font-size:3.52778px;line-height:1.25;font-family:'Alibaba PuHuiTi';-inkscape-font-specification:'Alibaba PuHuiTi, Light';letter-spacing:0px;word-spacing:0px;fill:#000000;stroke-width:0.264583"
       x="205.40486"
       y="183.26807"
       id="text1390-7-6-20"><tspan
         sodipodi:role="line"
         id="tspan1388-0-1-68"
         style="font-size:3.52778px;fill:#000000;stroke-width:0.264583"
         x="205.40486"
         y="183.26807">●</tspan></text>
    <text
       xml:space="preserve"
       style="font-weight:300;font-size:3.52778px;line-height:1.25;font-family:'Alibaba PuHuiTi';-inkscape-font-specification:'Alibaba PuHuiTi, Light';letter-spacing:0px;word-spacing:0px;fill:#000000;stroke-width:0.264583"
       x="189.79445"
       y="176.91808"
       id="text1390-7-6-9"><tspan
         sodipodi:role="line"
         id="tspan1388-0-1-2"
         style="font-size:3.52778px;fill:#000000;stroke-width:0.264583"
         x="189.79445"
         y="176.91808">●</tspan></text>
    <text
       xml:space="preserve"
       style="font-weight:300;font-size:3.52778px;line-height:1.25;font-family:'Alibaba PuHuiTi';-inkscape-font-specification:'Alibaba PuHuiTi, Light';letter-spacing:0px;word-spacing:0px;fill:#000000;stroke-width:0.264583"
       x="174.7132"
       y="189.0889"
       id="text1390-7-6-6"><tspan
         sodipodi:role="line"
         id="tspan1388-0-1-64"
         style="font-size:3.52778px;fill:#000000;stroke-width:0.264583"
         x="174.7132"
         y="189.0889">●</tspan></text>
    <text
       xml:space="preserve"
       style="font-weight:300;font-size:3.52778px;line-height:1.25;font-family:'Alibaba PuHuiTi';-inkscape-font-specification:'Alibaba PuHuiTi, Light';letter-spacing:0px;word-spacing:0px;fill:#000000;stroke-width:0.264583"
       x="180.00487"
       y="181.41599"
       id="text1390-7-6-95"><tspan
         sodipodi:role="line"
         id="tspan1388-0-1-04"
         style="font-size:3.52778px;fill:#000000;stroke-width:0.264583"
         x="180.00487"
         y="181.41599">●</tspan></text>
    <text
       xml:space="preserve"
       style="font-weight:300;font-size:3.52778px;line-height:1.25;font-family:'Alibaba PuHuiTi';-inkscape-font-specification:'Alibaba PuHuiTi, Light';letter-spacing:0px;word-spacing:0px;fill:#000000;stroke-width:0.264583"
       x="181.85695"
       y="193.32224"
       id="text1390-7-6-87"><tspan
         sodipodi:role="line"
         id="tspan1388-0-1-1"
         style="font-size:3.52778px;fill:#000000;stroke-width:0.264583"
         x="181.85695"
         y="193.32224">●</tspan></text>
    <text
       xml:space="preserve"
       style="font-weight:300;font-size:3.52778px;line-height:1.25;font-family:'Alibaba PuHuiTi';-inkscape-font-specification:'Alibaba PuHuiTi, Light';letter-spacing:0px;word-spacing:0px;fill:#000000;stroke-width:0.264583"
       x="191.64653"
       y="196.49724"
       id="text1390-7-6-72"><tspan
         sodipodi:role="line"
         id="tspan1388-0-1-7"
         style="font-size:3.52778px;fill:#000000;stroke-width:0.264583"
         x="191.64653"
         y="196.49724">●</tspan></text>
    <text
       xml:space="preserve"
       style="font-weight:300;font-size:3.52778px;line-height:1.25;font-family:'Alibaba PuHuiTi';-inkscape-font-specification:'Alibaba PuHuiTi, Light';letter-spacing:0px;word-spacing:0px;fill:#000000;stroke-width:0.264583"
       x="200.11319"
       y="172.68474"
       id="text1390-7-6-22"><tspan
         sodipodi:role="line"
         id="tspan1388-0-1-61"
         style="font-size:3.52778px;fill:#000000;stroke-width:0.264583"
         x="200.11319"
         y="172.68474">●</tspan></text>
    <text
       xml:space="preserve"
       style="font-weight:300;font-size:3.52778px;line-height:1.25;font-family:'Alibaba PuHuiTi';-inkscape-font-specification:'Alibaba PuHuiTi, Light';letter-spacing:0px;word-spacing:0px;fill:#000000;stroke-width:0.264583"
       x="216.78194"
       y="184.85558"
       id="text1390-7-6-0"><tspan
         sodipodi:role="line"
         id="tspan1388-0-1-615"
         style="font-size:3.52778px;fill:#000000;stroke-width:0.264583"
         x="216.78194"
         y="184.85558">●</tspan></text>
    <text
       xml:space="preserve"
       style="font-weight:300;font-size:3.52778px;line-height:1.25;font-family:'Alibaba PuHuiTi';-inkscape-font-specification:'Alibaba PuHuiTi, Light';letter-spacing:0px;word-spacing:0px;fill:#000000;stroke-width:0.264583"
       x="218.89861"
       y="175.59515"
       id="text1390-7-6-94"><tspan
         sodipodi:role="line"
         id="tspan1388-0-1-9"
         style="font-size:3.52778px;fill:#000000;stroke-width:0.264583"
         x="218.89861"
         y="175.59515">●</tspan></text>
    <text
       xml:space="preserve"
       style="font-weight:300;font-size:3.52778px;line-height:1.25;font-family:'Alibaba PuHuiTi';-inkscape-font-specification:'Alibaba PuHuiTi, Light';letter-spacing:0px;word-spacing:0px;fill:#000000;stroke-width:0.264583"
       x="207.7861"
       y="194.64516"
       id="text1390-7-6-09"><tspan
         sodipodi:role="line"
         id="tspan1388-0-1-17"
         style="font-size:3.52778px;fill:#000000;stroke-width:0.264583"
         x="207.7861"
         y="194.64516">●</tspan></text>
    <text
       xml:space="preserve"
       style="font-weight:300;font-size:3.52778px;line-height:1.25;font-family:'Alibaba PuHuiTi';-inkscape-font-specification:'Alibaba PuHuiTi, Light';letter-spacing:0px;word-spacing:0px;fill:#000000;stroke-width:0.264583"
       x="221.54445"
       y="194.64516"
       id="text1390-7-6-71"><tspan
         sodipodi:role="line"
         id="tspan1388-0-1-15"
         style="font-size:3.52778px;fill:#000000;stroke-width:0.264583"
         x="221.54445"
         y="194.64516">●</tspan></text>
    <text
       xml:space="preserve"
       style="font-weight:300;font-size:3.52778px;line-height:1.25;font-family:'Alibaba PuHuiTi';-inkscape-font-specification:'Alibaba PuHuiTi, Light';letter-spacing:0px;word-spacing:0px;fill:#000000;stroke-width:0.264583"
       x="226.83611"
       y="190.67641"
       id="text1390-7-6-97"><tspan
         sodipodi:role="line"
         id="tspan1388-0-1-76"
         style="font-size:3.52778px;fill:#000000;stroke-width:0.264583"
         x="226.83611"
         y="190.67641">●</tspan></text>
    <text
       xml:space="preserve"
       style="font-weight:300;font-size:3.52778px;line-height:1.25;font-family:'Alibaba PuHuiTi';-inkscape-font-specification:'Alibaba PuHuiTi, Light';letter-spacing:0px;word-spacing:0px;fill:#000000;stroke-width:0.264583"
       x="214.4007"
       y="198.87849"
       id="text1390-7-6-73"><tspan
         sodipodi:role="line"
         id="tspan1388-0-1-65"
         style="font-size:3.52778px;fill:#000000;stroke-width:0.264583"
         x="214.4007"
         y="198.87849">●</tspan></text>
    <text
       xml:space="preserve"
       style="font-weight:300;font-size:3.52778px;line-height:1.25;font-family:'Alibaba PuHuiTi';-inkscape-font-specification:'Alibaba PuHuiTi, Light';letter-spacing:0px;word-spacing:0px;fill:#000000;stroke-width:0.264583"
       x="183.97362"
       y="217.39931"
       id="text1390-7-6-63"><tspan
         sodipodi:role="line"
         id="tspan1388-0-1-94"
         style="font-size:3.52778px;fill:#000000;stroke-width:0.264583"
         x="183.97362"
         y="217.39931">●</tspan></text>
    <text
       xml:space="preserve"
       style="font-weight:300;font-size:3.52778px;line-height:1.25;font-family:'Alibaba PuHuiTi';-inkscape-font-specification:'Alibaba PuHuiTi, Light';letter-spacing:0px;word-spacing:0px;fill:#000000;stroke-width:0.264583"
       x="207.52153"
       y="216.07639"
       id="text1390-7-6-81"><tspan
         sodipodi:role="line"
         id="tspan1388-0-1-29"
         style="font-size:3.52778px;fill:#000000;stroke-width:0.264583"
         x="207.52153"
         y="216.07639">●</tspan></text>
    <text
       xml:space="preserve"
       style="font-weight:300;font-size:3.52778px;line-height:1.25;font-family:'Alibaba PuHuiTi';-inkscape-font-specification:'Alibaba PuHuiTi, Light';letter-spacing:0px;word-spacing:0px;fill:#000000;stroke-width:0.264583"
       x="233.4507"
       y="207.08055"
       id="text1390-7-6-3"><tspan
         sodipodi:role="line"
         id="tspan1388-0-1-90"
         style="font-size:3.52778px;fill:#000000;stroke-width:0.264583"
         x="233.4507"
         y="207.08055">●</tspan></text>
    <ellipse
       style="font-variation-settings:normal;opacity:1;fill:none;fill-opacity:1;stroke:#000000;stroke-width:0.52916667;stroke-linecap:butt;stroke-linejoin:miter;stroke-miterlimit:4;stroke-dasharray:none;stroke-dashoffset:0;stroke-opacity:1;stop-color:#000000;stop-opacity:1"
       id="path2821"
       cx="159.0976"
       cy="110.26455"
       rx="27.470572"
       ry="7.6299028" />
    <path
       style="fill:#ffffff;stroke:#ff0000;stroke-width:0.529167;stroke-linecap:butt;stroke-linejoin:miter;stroke-dasharray:none;stroke-opacity:1"
       d="m 162.78906,87.221832 c 0,0 7.50002,5.925973 10.79342,19.711858 1.58469,-13.660063 10.43148,-19.8222 10.43148,-19.8222"
       id="path3431-9"
       sodipodi:nodetypes="ccc" />
    <path
       style="fill:#ffffff;stroke:#ff0000;stroke-width:0.529167;stroke-linecap:butt;stroke-linejoin:miter;stroke-dasharray:none;stroke-opacity:1"
       d="m 132.26895,89.231228 c 0,0 7.50002,5.925973 10.79342,19.711902 1.58469,-13.660107 10.43148,-19.822244 10.43148,-19.822244"
       id="path3431-9-7"
       sodipodi:nodetypes="ccc" />
    <path
       style="fill:#ffffff;stroke:#ff0000;stroke-width:0.529167;stroke-linecap:butt;stroke-linejoin:miter;stroke-dasharray:none;stroke-opacity:1"
       d="m 131.10721,58.619172 c 0,0 18.75005,14.814932 26.98356,49.279638 3.96171,-34.15015 26.07868,-49.555492 26.07868,-49.555492"
       id="path3431"
       sodipodi:nodetypes="ccc" />
    <text
       xml:space="preserve"
       style="font-weight:300;font-size:6.35px;line-height:1.25;font-family:'Alibaba PuHuiTi';-inkscape-font-specification:'Alibaba PuHuiTi, Light';letter-spacing:0px;word-spacing:0px;stroke-width:0.264583"
       x="134.90419"
       y="126.29176"
       id="text3435"><tspan
         sodipodi:role="line"
         id="tspan3433"
         style="stroke-width:0.264583"
         x="134.90419"
         y="126.29176">point in space A</tspan></text>
    <text
       xml:space="preserve"
       style="font-weight:300;font-size:6.35px;line-height:1.25;font-family:'Alibaba PuHuiTi';-inkscape-font-specification:'Alibaba PuHuiTi, Light';letter-spacing:0px;word-spacing:0px;stroke-width:0.264583"
       x="157.42773"
       y="55.811417"
       id="text2102-22"><tspan
         sodipodi:role="line"
         id="tspan2100-8"
         style="text-align:center;text-anchor:middle;fill:#ff0000;stroke-width:0.264583"
         x="157.42773"
         y="55.811417">approximations </tspan><tspan
         sodipodi:role="line"
         style="text-align:center;text-anchor:middle;fill:#ff0000;stroke-width:0.264583"
         x="157.42773"
         y="63.748917"
         id="tspan3523">from</tspan><tspan
         sodipodi:role="line"
         style="text-align:center;text-anchor:middle;fill:#ff0000;stroke-width:0.264583"
         x="157.42773"
         y="71.686417"
         id="tspan3521">space B</tspan></text>
    <path
       style="fill:none;stroke:#ff0000;stroke-width:0.529167;stroke-linecap:butt;stroke-linejoin:miter;stroke-dasharray:none;stroke-opacity:1"
       d="m 147.0813,79.137337 h 20.04415"
       id="path3525" />
    <path
       style="fill:none;stroke:#ff0000;stroke-width:0.529167;stroke-linecap:butt;stroke-linejoin:miter;stroke-dasharray:none;stroke-opacity:1"
       d="m 148.99251,83.34375 h 15.81081"
       id="path3525-9"
       sodipodi:nodetypes="cc" />
    <path
       style="fill:none;stroke:#ff0000;stroke-width:0.529167;stroke-linecap:butt;stroke-linejoin:miter;stroke-dasharray:none;stroke-opacity:1"
       d="m 153.75501,93.927084 h 7.34415"
       id="path3525-7"
       sodipodi:nodetypes="cc" />
    <path
       style="fill:none;stroke:#ff0000;stroke-width:0.529167;stroke-linecap:butt;stroke-linejoin:miter;stroke-dasharray:none;stroke-opacity:1"
       d="m 154.68105,96.440623 h 5.75665"
       id="path3525-7-8"
       sodipodi:nodetypes="cc" />
    <path
       style="fill:none;stroke:#ff0000;stroke-width:0.529167;stroke-linecap:butt;stroke-linejoin:miter;stroke-dasharray:none;stroke-opacity:1"
       d="m 155.87167,99.218751 h 3.63999"
       id="path3525-3"
       sodipodi:nodetypes="cc" />
    <path
       style="fill:none;stroke:#ff0000;stroke-width:0.529167;stroke-linecap:butt;stroke-linejoin:miter;stroke-dasharray:none;stroke-opacity:1"
       d="m 153.22584,92.339583 h 8.40248"
       id="path3525-6"
       sodipodi:nodetypes="cc" />
    <path
       style="fill:none;stroke:#ff0000;stroke-width:0.529167;stroke-linecap:butt;stroke-linejoin:miter;stroke-dasharray:none;stroke-opacity:1"
       d="m 156.40084,101.33542 h 2.58165"
       id="path3525-1"
       sodipodi:nodetypes="cc" />
    <g
       inkscape:label=""
       transform="translate(117.06656,171.70465)"
       id="g4427"
       style="fill:#0000ff">
      <g
         id="g4425"
         transform="matrix(0.705556,0,0,0.705556,-202.414,-61.3034)"
         style="fill:#0000ff">
        <g
           style="fill:#0000ff;fill-opacity:1"
           id="g35">
          <g
             id="use33"
             transform="translate(286.32401,93.917999)"
             style="fill:#0000ff">
            <path
               style="stroke:none;fill:#0000ff"
               d="m 7.1875,-3.375 c 0,-2.03125 -1.5,-3.65625 -3.3125,-3.65625 -1.796875,0 -3.3125,1.59375 -3.3125,3.65625 0,2.046875 1.53125,3.59375 3.3125,3.59375 1.8125,0 3.3125,-1.578125 3.3125,-3.59375 z M 3.875,-0.015625 c -0.984375,0 -2.34375,-0.859375 -2.34375,-3.359375 0,-2.5625 1.375,-3.4375 2.34375,-3.4375 1,0 2.34375,0.90625 2.34375,3.4375 0,2.53125 -1.40625,3.359375 -2.34375,3.359375 z M 5.65625,-4.125 h -0.25 v 0.34375 H 2.34375 V -4.125 h -0.25 v 1.4375 h 0.25 v -0.34375 h 3.0625 v 0.34375 h 0.25 z m 0,0"
               id="path58" />
          </g>
        </g>
        <g
           style="fill:#0000ff;fill-opacity:1"
           id="g39">
          <g
             id="use37"
             transform="translate(294.073,95.412003)"
             style="fill:#0000ff">
            <path
               style="stroke:none;fill:#0000ff"
               d="m 1.4375,-0.84375 c -0.25,0.390625 -0.46875,0.5625 -0.875,0.59375 -0.078125,0 -0.171875,0 -0.171875,0.140625 C 0.390625,-0.03125 0.453125,0 0.5,0 0.671875,0 0.90625,-0.03125 1.09375,-0.03125 1.3125,-0.03125 1.609375,0 1.8125,0 1.84375,0 1.953125,0 1.953125,-0.15625 1.953125,-0.25 1.859375,-0.25 1.828125,-0.25 1.78125,-0.265625 1.53125,-0.265625 1.53125,-0.453125 c 0,-0.09375 0.0625,-0.203125 0.09375,-0.265625 l 0.5625,-0.875 h 2 L 4.34375,-0.4375 C 4.328125,-0.359375 4.28125,-0.25 3.875,-0.25 c -0.09375,0 -0.1875,0 -0.1875,0.15625 C 3.6875,-0.0625 3.703125,0 3.796875,0 4,0 4.5,-0.03125 4.703125,-0.03125 c 0.125,0 0.28125,0.015625 0.40625,0.015625 C 5.234375,-0.015625 5.375,0 5.5,0 5.59375,0 5.640625,-0.0625 5.640625,-0.140625 5.640625,-0.25 5.5625,-0.25 5.453125,-0.25 c -0.40625,0 -0.421875,-0.0625 -0.4375,-0.21875 l -0.625,-4.3125 C 4.375,-4.921875 4.359375,-4.96875 4.234375,-4.96875 4.09375,-4.96875 4.0625,-4.90625 4,-4.8125 Z m 0.921875,-1 L 3.8125,-4.125 4.140625,-1.84375 Z m 0,0"
               id="path62" />
          </g>
        </g>
        <g
           style="fill:#0000ff;fill-opacity:1"
           id="g43">
          <g
             id="use41"
             transform="translate(303.32901,93.917999)"
             style="fill:#0000ff">
            <path
               style="stroke:none;fill:#0000ff"
               d="m 2.21875,-2.5 c 0,-0.078125 -0.0625,-0.1875 -0.203125,-0.1875 -0.84375,-0.046875 -1.0625,-0.46875 -1.0625,-0.765625 0,-0.375 0.3125,-0.75 1.046875,-0.78125 0.21875,0 0.21875,-0.1875 0.21875,-0.1875 0,-0.203125 -0.203125,-0.203125 -0.25,-0.203125 -0.609375,0 -1.421875,0.375 -1.421875,1.171875 0,0.78125 0.8125,1.15625 1.421875,1.15625 0.046875,0 0.25,0 0.25,-0.203125 z m 0,0"
               id="path66" />
          </g>
        </g>
        <g
           style="fill:#0000ff;fill-opacity:1"
           id="g47">
          <g
             id="use45"
             transform="translate(304.436,93.917999)"
             style="fill:#0000ff">
            <path
               style="stroke:none;fill:#0000ff"
               d="M 8.3125,-2.296875 C 7.765625,-1.875 7.5,-1.46875 7.421875,-1.328125 c -0.453125,0.6875 -0.53125,1.3125 -0.53125,1.3125 0,0.125 0.125,0.125 0.203125,0.125 C 7.25,0.109375 7.265625,0.09375 7.3125,-0.09375 7.53125,-1.0625 8.125,-1.90625 9.25,-2.359375 9.375,-2.40625 9.40625,-2.421875 9.40625,-2.5 c 0,-0.0625 -0.0625,-0.09375 -0.078125,-0.109375 C 8.875,-2.765625 7.671875,-3.265625 7.296875,-4.9375 7.265625,-5.0625 7.25,-5.09375 7.09375,-5.09375 c -0.078125,0 -0.203125,0 -0.203125,0.125 0,0.015625 0.09375,0.640625 0.5,1.3125 0.203125,0.296875 0.5,0.640625 0.921875,0.96875 H 0.90625 c -0.171875,0 -0.359375,0 -0.359375,0.1875 0,0.203125 0.1875,0.203125 0.359375,0.203125 z m 0,0"
               id="path70" />
          </g>
        </g>
        <g
           style="fill:#0000ff;fill-opacity:1"
           id="g51">
          <g
             id="use49"
             transform="translate(317.16821,93.917999)"
             style="fill:#0000ff">
            <path
               style="stroke:none;fill:#000000"
               d="M 3.296875,-3.34375 C 3.421875,-3.8125 3.5625,-4.3125 3.65625,-4.796875 3.78125,-5.46875 3.84375,-6.125 3.84375,-6.25 c 0,-0.5625 -0.546875,-0.5625 -0.65625,-0.5625 -0.765625,0 -1.4375,0.28125 -1.90625,0.609375 C 0.46875,-5.65625 0.203125,-5 0.203125,-4.9375 c 0,0.0625 0.078125,0.0625 0.109375,0.0625 0.078125,0 0.546875,-0.125 0.75,-0.5 0.265625,-0.5 0.5625,-0.890625 1.453125,-0.890625 C 2.9375,-6.265625 3,-5.984375 3,-5.828125 3,-5.8125 2.96875,-5.34375 2.84375,-4.65625 2.796875,-4.375 2.765625,-4.203125 2.5625,-3.34375 H 2.203125 c -0.28125,0.015625 -0.734375,0.328125 -0.734375,0.484375 0,0.0625 0,0.0625 0.21875,0.0625 h 0.71875 c -0.203125,0.703125 -0.484375,1.65625 -0.9375,2.875 C 1.375,0.3125 1.375,0.328125 1.375,0.34375 c 0,0.0625 0.078125,0.0625 0.09375,0.0625 0.140625,0 0.453125,-0.125 0.65625,-0.328125 C 2.171875,0.015625 2.1875,0 2.234375,-0.09375 2.578125,-0.984375 2.875,-1.875 3.140625,-2.796875 h 2.25 c 0.109375,0 0.296875,0 0.453125,-0.09375 -0.109375,0.421875 -0.515625,2.046875 -0.515625,2.828125 0,0.296875 0.171875,0.546875 0.59375,0.546875 1.328125,0 2.0625,-0.828125 2.0625,-1.140625 0,-0.0625 -0.046875,-0.078125 -0.09375,-0.078125 -0.078125,0 -0.609375,0.140625 -0.765625,0.53125 C 7.09375,-0.125 7.078125,-0.125 6.890625,-0.09375 6.78125,-0.0625 6.59375,-0.0625 6.578125,-0.0625 c -0.171875,0 -0.40625,-0.109375 -0.40625,-0.421875 0,-0.125 0.0625,-0.671875 0.09375,-0.890625 C 6.4375,-2.484375 6.921875,-4.359375 7.78125,-6.625 7.8125,-6.703125 7.8125,-6.71875 7.8125,-6.734375 7.8125,-6.8125 7.75,-6.8125 7.71875,-6.8125 c -0.15625,0 -0.4375,0.140625 -0.625,0.3125 -0.015625,0.015625 -0.078125,0.0625 -0.109375,0.15625 -0.40625,0.984375 -0.71875,1.984375 -1.015625,3 z m 0,0"
               id="path74" />
          </g>
        </g>
      </g>
    </g>
    <g
       inkscape:label=""
       transform="translate(116.81031,180.83457)"
       id="g4766"
       style="fill:#ff0000">
      <g
         id="g4764"
         transform="matrix(0.705556,0,0,0.705556,-202.285,-61.3034)"
         style="fill:#ff0000">
        <g
           style="fill:#ff0000;fill-opacity:1"
           id="g4738">
          <g
             id="g4736"
             transform="translate(286.14001,93.917999)"
             style="fill:#ff0000">
            <path
               style="stroke:none;fill:#ff0000"
               d="m 7.1875,-3.375 c 0,-2.03125 -1.5,-3.65625 -3.3125,-3.65625 -1.796875,0 -3.3125,1.59375 -3.3125,3.65625 0,2.046875 1.53125,3.59375 3.3125,3.59375 1.8125,0 3.3125,-1.578125 3.3125,-3.59375 z M 3.875,-0.015625 c -0.984375,0 -2.34375,-0.859375 -2.34375,-3.359375 0,-2.5625 1.375,-3.4375 2.34375,-3.4375 1,0 2.34375,0.90625 2.34375,3.4375 0,2.53125 -1.40625,3.359375 -2.34375,3.359375 z M 5.65625,-4.125 h -0.25 v 0.34375 H 2.34375 V -4.125 h -0.25 v 1.4375 h 0.25 v -0.34375 h 3.0625 v 0.34375 h 0.25 z m 0,0"
               id="path4734" />
          </g>
        </g>
        <g
           style="fill:#ff0000;fill-opacity:1"
           id="g4744">
          <g
             id="g4742"
             transform="translate(293.88901,95.412003)"
             style="fill:#ff0000">
            <path
               style="stroke:none;fill:#ff0000"
               d="M 1.328125,-0.546875 C 1.265625,-0.3125 1.25,-0.25 0.703125,-0.25 0.59375,-0.25 0.5,-0.25 0.5,-0.109375 0.5,0 0.578125,0 0.703125,0 H 3.40625 c 1.171875,0 2.078125,-0.796875 2.078125,-1.484375 0,-0.5 -0.453125,-0.921875 -1.203125,-1 0.84375,-0.15625 1.546875,-0.6875 1.546875,-1.28125 0,-0.53125 -0.53125,-1 -1.4375,-1 h -2.53125 c -0.140625,0 -0.234375,0 -0.234375,0.15625 0,0.09375 0.09375,0.09375 0.234375,0.09375 0,0 0.140625,0 0.265625,0.015625 0.140625,0.015625 0.15625,0.03125 0.15625,0.109375 0,0 0,0.046875 -0.03125,0.140625 z m 1.109375,-2.03125 0.421875,-1.6875 c 0.0625,-0.21875 0.0625,-0.25 0.359375,-0.25 h 1.0625 c 0.703125,0 0.875,0.46875 0.875,0.734375 0,0.5625 -0.640625,1.203125 -1.578125,1.203125 z M 2.109375,-0.25 C 1.890625,-0.25 1.875,-0.265625 1.875,-0.328125 c 0,0 0,-0.03125 0.03125,-0.140625 L 2.390625,-2.375 H 3.875 c 0.640625,0 0.90625,0.4375 0.90625,0.828125 0,0.703125 -0.71875,1.296875 -1.5625,1.296875 z m 0,0"
               id="path4740" />
          </g>
        </g>
        <g
           style="fill:#ff0000;fill-opacity:1"
           id="g4750">
          <g
             id="g4748"
             transform="translate(303.513,93.917999)"
             style="fill:#ff0000">
            <path
               style="stroke:none;fill:#ff0000"
               d="m 2.21875,-2.5 c 0,-0.078125 -0.0625,-0.1875 -0.203125,-0.1875 -0.84375,-0.046875 -1.0625,-0.46875 -1.0625,-0.765625 0,-0.375 0.3125,-0.75 1.046875,-0.78125 0.21875,0 0.21875,-0.1875 0.21875,-0.1875 0,-0.203125 -0.203125,-0.203125 -0.25,-0.203125 -0.609375,0 -1.421875,0.375 -1.421875,1.171875 0,0.78125 0.8125,1.15625 1.421875,1.15625 0.046875,0 0.25,0 0.25,-0.203125 z m 0,0"
               id="path4746" />
          </g>
        </g>
        <g
           style="fill:#ff0000;fill-opacity:1"
           id="g4756">
          <g
             id="g4754"
             transform="translate(304.62,93.917999)"
             style="fill:#ff0000">
            <path
               style="stroke:none;fill:#ff0000"
               d="M 8.3125,-2.296875 C 7.765625,-1.875 7.5,-1.46875 7.421875,-1.328125 c -0.453125,0.6875 -0.53125,1.3125 -0.53125,1.3125 0,0.125 0.125,0.125 0.203125,0.125 C 7.25,0.109375 7.265625,0.09375 7.3125,-0.09375 7.53125,-1.0625 8.125,-1.90625 9.25,-2.359375 9.375,-2.40625 9.40625,-2.421875 9.40625,-2.5 c 0,-0.0625 -0.0625,-0.09375 -0.078125,-0.109375 C 8.875,-2.765625 7.671875,-3.265625 7.296875,-4.9375 7.265625,-5.0625 7.25,-5.09375 7.09375,-5.09375 c -0.078125,0 -0.203125,0 -0.203125,0.125 0,0.015625 0.09375,0.640625 0.5,1.3125 0.203125,0.296875 0.5,0.640625 0.921875,0.96875 H 0.90625 c -0.171875,0 -0.359375,0 -0.359375,0.1875 0,0.203125 0.1875,0.203125 0.359375,0.203125 z m 0,0"
               id="path4752" />
          </g>
        </g>
        <g
           style="fill:#ff0000;fill-opacity:1"
           id="g4762">
          <g
             id="g4760"
             transform="translate(317.3522,93.917999)"
             style="fill:#ff0000">
            <path
               style="stroke:none;fill:#000000"
               d="M 3.296875,-3.34375 C 3.421875,-3.8125 3.5625,-4.3125 3.65625,-4.796875 3.78125,-5.46875 3.84375,-6.125 3.84375,-6.25 c 0,-0.5625 -0.546875,-0.5625 -0.65625,-0.5625 -0.765625,0 -1.4375,0.28125 -1.90625,0.609375 C 0.46875,-5.65625 0.203125,-5 0.203125,-4.9375 c 0,0.0625 0.078125,0.0625 0.109375,0.0625 0.078125,0 0.546875,-0.125 0.75,-0.5 0.265625,-0.5 0.5625,-0.890625 1.453125,-0.890625 C 2.9375,-6.265625 3,-5.984375 3,-5.828125 3,-5.8125 2.96875,-5.34375 2.84375,-4.65625 2.796875,-4.375 2.765625,-4.203125 2.5625,-3.34375 H 2.203125 c -0.28125,0.015625 -0.734375,0.328125 -0.734375,0.484375 0,0.0625 0,0.0625 0.21875,0.0625 h 0.71875 c -0.203125,0.703125 -0.484375,1.65625 -0.9375,2.875 C 1.375,0.3125 1.375,0.328125 1.375,0.34375 c 0,0.0625 0.078125,0.0625 0.09375,0.0625 0.140625,0 0.453125,-0.125 0.65625,-0.328125 C 2.171875,0.015625 2.1875,0 2.234375,-0.09375 2.578125,-0.984375 2.875,-1.875 3.140625,-2.796875 h 2.25 c 0.109375,0 0.296875,0 0.453125,-0.09375 -0.109375,0.421875 -0.515625,2.046875 -0.515625,2.828125 0,0.296875 0.171875,0.546875 0.59375,0.546875 1.328125,0 2.0625,-0.828125 2.0625,-1.140625 0,-0.0625 -0.046875,-0.078125 -0.09375,-0.078125 -0.078125,0 -0.609375,0.140625 -0.765625,0.53125 C 7.09375,-0.125 7.078125,-0.125 6.890625,-0.09375 6.78125,-0.0625 6.59375,-0.0625 6.578125,-0.0625 c -0.171875,0 -0.40625,-0.109375 -0.40625,-0.421875 0,-0.125 0.0625,-0.671875 0.09375,-0.890625 C 6.4375,-2.484375 6.921875,-4.359375 7.78125,-6.625 7.8125,-6.703125 7.8125,-6.71875 7.8125,-6.734375 7.8125,-6.8125 7.75,-6.8125 7.71875,-6.8125 c -0.15625,0 -0.4375,0.140625 -0.625,0.3125 -0.015625,0.015625 -0.078125,0.0625 -0.109375,0.15625 -0.40625,0.984375 -0.71875,1.984375 -1.015625,3 z m 0,0"
               id="path4758" />
          </g>
        </g>
      </g>
    </g>
  </g>
</svg>
